<?xml version="1.0" encoding="utf-8"?>
<!-- Generator: Adobe Illustrator 25.3.1, SVG Export Plug-In . SVG Version: 6.00 Build 0)  -->
<svg version="1.1" id="Camada_1" xmlns="http://www.w3.org/2000/svg" xmlns:xlink="http://www.w3.org/1999/xlink" x="0px" y="0px"
	 viewBox="0 0 1024 768" style="enable-background:new 0 0 1024 768;" xml:space="preserve">
<style type="text/css">
	.st0{fill-rule:evenodd;clip-rule:evenodd;fill:#6C5CE7;}
	.st1{fill-rule:evenodd;clip-rule:evenodd;fill:#FFFFFF;}
	.st2{fill-rule:evenodd;clip-rule:evenodd;}
</style>
<desc>Created with Sketch.</desc>
<g id="Character_x2F_float">
	<path id="Accent" class="st0" d="M231.1,114.3c0.3-0.7,0.6-1.3,0.9-2c0.6,1.6,3.2,2.8,4.8,2.3c1-0.3,1.8-1.7,2.4-1.7
		c1,0,3.9,2.5,5.3,2.8c2,0.4,3.2,0.3,4.5-1.4c0.6,1,1.2,2,1.8,2.9l1.5-0.8c0.8-0.9,1.6-0.9,2.5,0c0.4,0.2,0.8,0.4,1.2,0.7
		c3.5,1.9,4.8,1.2,6.4-2.4c-0.2,1.4,0.5,4,2.3,4c1,0,2.7-2.4,3.8-2.8c1.5-0.6,2.7-0.5,4.4-0.3l-3.2,0.7c0.9,2.3,1.6,1.9,3.1,3.1
		c-0.2-0.2,1.8,1.3,1.9,1.6l0.1-0.1c0.6-0.6,1.3-1,2.2-1.1c0.9-0.1,1.7,0,2.5,0.3c1.3,0.3,3.1,0.6,4.4,1c1.7,0.6,2.5,1.7,4,2.4
		c1.8,0.9,2.8,0.2,4.5-0.1c2.6-0.4,7.3-1.2,7.8,2.6c4.3-1.3,6.6,1.1,10.5,1.9c1.3,0.3,2.9-0.2,4.2,0.2c1.1,0.4,1.9,1.3,3.1,1.7
		c0.8,0.3,3,1.1,3.6,1.2c1.1,0.1,1.9-0.4,3.1-0.4c1.2,0,2.2,1,3.3,1.2c2.5,0.7,2.5,0.6,5-0.8c0,1.9,2.6,0.5,3.2,0.4
		c1.9-0.2,1.3-0.7,3.1,0.9h-1.8c1.8,2,3.1,1.4,5.6,2c1.6,0.3,6.5,0.8,2.6,1.8c1.1,1.1,1.8,0.9,3.1,0.9c1.7,0,1.1-0.8,2.8-0.2
		c1.1,0.4,2.6,2.4,3.7,2.5c0.8,0.1,3.6-1.4,4.3-1.7c0.3,1.1,0.7,2.1,1,3.2l1.2-0.3c0.7,0.3,1.8,0.4,2.5,0.8c1.9,0.9,2.9,3,4.3,0.8
		c0.4,0.9,0.9,1.8,1.3,2.6c3.4-2.1,5.5,0.3,9.2,1.2c0.9,0.2,1.9,0.4,2.8,0.5c0.3,0.5,0.6,1,0.8,1.5c0.9,0.6,0.9,0.8,2,1.1
		c0.8-0.8,1.6-0.8,2.4,0c0.6,0.3,1.3,0.6,1.9,0.9c1.5,0.9,2.3,2.1,3.7,3.1c2.6,1.9,5.9,2.5,8.4,0.8c0,2.6-0.4,2.3,1.5,3.7
		c0.7,0.5,2,0.9,2.8,1.2c2.3,0.7,4.4,0.5,6.8,0.5c-0.4,0.7-0.9,1.3-1.3,2c-0.4,0.2,4.2,0.3,3.6,0.2c1.5,0.5,2.1,1.9,3.1,2.9
		c0.5,0.5,0.6,1.4,1.4,1.8c1,0.5,1.7-0.3,2.6,0.1c2,1,0.9,2.9,3.6,1.4l1.7,3.1c0.5-0.8,0.9-2,2-1c0.8,0.8-0.5,1.6-0.2,2.1
		c1.3,2.3,1.9,0,4.4,0.7c1.8,0.5,1.5,3.3,3.5,4.5c1.9,1.2,3.5,1,5.3,2.5c1.2,1.1,1.2,1.7,2.8,2.3c1,0.4,3.1-0.1,4,0.4
		c1,0.6,1,2.2,2,2.6c0.7,0.3,1.7-0.3,2.5,0.1c1.6,0.8,1.4,2.6,3.7,3.4c0.4,0.2,2.5,0.3,2.8,0.5c0.7,0.5,1.9,2.9,2.4,3.7
		c1.4-1.9,0.7-1.4,2.4-1.1c1,0.2,2.9,1.7,3.8,2.2c-0.8,0.1-1.6,0.3-2.4,0.4c0,1.2,3.2,2.8,4,3.7c0.4-0.6,2.9-4.6,3.6-1.8
		c0.5,2.1-2,1.8-0.3,4c1.7,2.3,7,4.3,9.4,5.7c2.5,1.4,5.7,5.3,8.5,5.9c0.6,0.4,1.2,0.5,1.9,0.3c0.8-1.2,1.5-1.1,2.2,0.4
		c1.9,1.1,3.7,3.3,3.1,5.2c5,0.4,3.6,4.7,3.4,8.7c-0.2,5-0.5,10-0.7,15c-0.5,9.3-1.8,18.3-2.6,27.6c-0.4,4.8-1,9.9-0.7,14.7
		c0.3,4.3,1.4,8.6,1.9,12.9c0.6,5.1-1,5.8-5.3,8c-1.2,0.6-5.1,2.9-6.5,1.7c-0.2-1-0.4-2-0.6-3c-0.9-0.3-1.9-0.6-2.8-0.9
		c0.1,2,0.6,3.9,3,3.9c-1.1,0.3-2.1,0.7-3.2,1c-0.3-1.7-0.7-2.7-2.8-2.2c1.2,2.2,2.2,2.3-0.2,3.7c-0.9-2-2.9-2.8-4.9-3.4
		c0,1.3,0.3,3.1-0.2,4.3c-0.4,0.8-2.1-0.2-1.5,1.5c-1-0.4-1.9-0.8-2.9-1.2c0.3-0.7,0.5-1.4,0.6-2.1c-0.5-1.7-0.1-2.8-1.9-4
		c-0.3,1.4-2.3,0.5-3.3,1.2c-2.4,1.6-0.7,2.7,0.5,4.3c-3-0.9-4.4,0.2-7.4,1.4c-2.6,1-3,2.2-5,3.5c-2.6,1.7-7.7,1.6-10.6,2.2
		c-2.7,0.6-6.5,0.9-8.8,2.6c-4.2,3-2.3,9.9-1.5,14.2c1.1,6.8,4,13,5.6,19.6c-1.5,0-3.2-0.3-4.2-0.5c-0.3,0-2.8-3.8-0.7,0.5
		c-1.5,0.4-4-1.3-5.5-1.7c-1.2-0.3-2.4-0.5-3.6-0.7l-1.5-0.2c-3.5-0.6-6.9-1.4-10.4-1.8c-5.9-0.7-17.9,1.5-21.5-3.7
		c-0.8,0.6,0.1,1.5,0.4,2.3c-7.6-0.4-15.7,0.5-23.1-0.7c2.9-3.1-1-1.3-0.3-2.7c-0.5,1.1-0.5,0.9-0.1,2.7c-16.1,1-31.9,0.9-47.8,4.2
		c-7,1.4-13.8,3.2-20.6,5.3c-3.1,1-6.7,2.2-9.9,2.9c-1.3,0.3-2.5,0.8-3-0.5l0-0.1l-0.1-0.1c-1.9-1.5-3.8-2-3.2-4.5
		c0.7-2.8,2.3-1.5,3.7-3.6c-1.4-0.5-1.6,0.2-2.8,0.2c-1.1,1.1-2,0.9-2.7-0.6c-0.4-0.4-0.8-0.8-1.2-1.2c0.1-1.2,4.7-1.5,2.2-3.7
		c0.8,0.3,1.6,0.7,2.4,1c-0.5-0.7-0.9-1.5-1.4-2.2c-2.9,3.6-0.2-4-0.5-5.3c0-2.6,3.8-8.1,5-10.7c1.6-3.4,3.2-6.7,5.2-9.7
		c4.2-6.3,8.4-12.8,12.6-19.2c1.8-2.8,3.2-5.9,5.2-8.5c2-2.6,4.3-5.1,6.1-8c2.2-3.5,4.4-6.4,7.2-9.5c2.3-2.6,5.2-5.3,4.7-9.2
		c0.5,0.5,0.9,1.1,1.4,1.6c5.4-6,10.5-12.2,16.4-17.9c5.1-4.9,10.9-9.5,15.2-15.2c1.4-1.9,2.6-3.9,3.7-6.1c0.3-0.6,1.1-3.1,1.5-3.3
		c1.3-0.8,5.8,1.5,7.4,1.7c7.2,1.3,13.9,4.7,21.1,5.9c12,2.1,24.3,7.5,36.4,10.5c6.8,1.7,13.5,3.4,20.2,5.5c2.4,0.8,5.7,2.7,8.2,2.9
		c1.8,0.2,2.3,0.4,3-1.9c0.3-1.2,0.4-2-0.1-3.1c-1.4-2.9-5.7-4-8.3-5.3c-2.7-1.3-5.2-3.1-8-4.4c-6.3-3-13.5-4.9-20.2-7
		c-6.2-2-12.5-3.6-18.6-5.8c-2.6-0.9-5-0.9-7.5-1.5c-2.6-0.6-5.2-2.5-7.8-3.3c-13.4-4.5-26.9-7-40.7-9.7c-13-2.5-26.5-4.4-39.8-5.1
		c-14.4-0.8-28.7-0.6-43.1,0c-3.8,0.2-7.6,0.3-11.4,1c-2.3,0.4-5.8,0.4-7.8,1.5c-1.5,0.8-1.4,1.2-2.2,2.5c-0.9,1.5,0.8,2-1.5,2.7
		c-1.1,0.3-1.3-2.8-2.6-1c-0.6-2.9-1.6-5.2-0.3-7.9c0.5,0.7,0.9,1.4,1.4,2c-0.5-2.5-1.2-5-1.4-7.6c-0.1-3.1,0.2-5.4-1.3-8.4
		c2-0.2,1.6-1.6,0.9-3.2c-0.9-2.1-0.7-1.6-3.1-1.6c-5.3,0-2.2-3.2-0.8-1.4c0.6-1.2,0.5-8.8-0.1-10.2c-0.7-0.7-1.3-1.4-1.8-2.2
		c-0.4-0.9-0.6-1.8-0.5-2.8c-0.5-1.5-1.4-2.8-2.1-4.2l-2.7,1.6c-0.7-2.3,0.2-1.9,2.1-2.8c-0.7-0.4-4.5-4.3-4.6-4.6
		c-0.5-2.7,3.8-1.5,4.4-3.6c0.1-0.5-1.5-2.8-1.7-3.1c1.3,0.1,2.5,0.2,3.8,0.4l-3.8-7.1c-1.7,2.2-2.9,4.9-5.4,6.3
		c-0.8-1.8-1.7-3.5-2.5-5.3c0.8,0.3,5.8,1.5,3.4-1.1c1-0.4,2-0.9,3.1-1.3c-1.9-1.1-2-3.9-3.2-6c-1.2-2.2-2-0.6-0.5-3.3
		c0.9-1.8,2.5-1.6,2.6-3.5l-1-2.7c-0.9-0.1-1.2,0.5-0.8,1.6c-0.9,1.2-0.9,2.2-2.2,3.4c-0.8,0.7-3.7,1.7-3.9,2.5
		c-0.2,0.7,2,3.4,2.3,4c-2.9,0.9-2.5,0-3.7-2.7c-1-2.3-2-4.5-3-6.8c0.2-1.6,0.1-2.7,0.8-4.1c0.8-1.8,1.9,0,1.4-2.8
		c1.1,0.4,1.9,1.2,2.7-0.2c-2.1-1.6-2,1.5-3.7-0.9c-1-1.3-0.6-1.9,0.5-3.1c2.1,1.6,5.6,5.5,8.4,3.8c-0.9-0.7-4.9-3.4-4.6-4.4
		c0.4-1.7,4.2,0.7,4.6-2.4C229.5,112.9,230.3,113.6,231.1,114.3z M288,357.5L288,357.5L288,357.5L288,357.5L288,357.5z M288.1,357.3
		l0,0.2l1-0.2l1-0.2v-3.1C288.8,354.8,288,355.9,288.1,357.3z M379.8,345.1c1.1-0.1,2.2-0.2,3.3-0.3c-0.3-1-0.6-2-1-3
		C381.4,342.9,380.6,344,379.8,345.1z M513.8,262.6c3,0.4,5.7,1.8,8.8,2.2c3,0.4,7.6,0.1,10.4,1.3c0.9,0.4,1.4,2,2.3,2.1
		c1.2,0.2,0.6-1.4,2.4-1.3c3.3,3.1,6.9,2.8,11.1,3.7c2,0.4,2,0.8,4.1,0.5c1.2-0.2,1.7-0.8,3-0.3c1.6,0.7,2.2,1.7,3.9,2.1
		c3.2,0.7,3.3,0.4,2.9,4.4c-0.3,3.1-0.7,6.2-0.9,9.3c-0.5,6.8-0.3,13.7-0.3,20.5c-18-2.1-36.2-2.5-54.3-2.3c6.2-12-2.2-26.4,0.5-39
		c0.5-2.2,0.4-2.1,2.8-2.8C511.7,262.7,512.6,262.5,513.8,262.6z M472.4,303.3c1.6,1.2,2.4,1.3,3.8,0.3c-0.2,0.1,2.4-3.3,2.6-3l0,0
		l0-0.2c0-1.7-2.6,1.1-3.2-1.1C474.9,301.5,475.2,303.2,472.4,303.3z M465.8,300.7c0.5,0.9,0.9,2.3,1.9,1.8
		C467.1,301.4,467,300.1,465.8,300.7z M468.6,294.7l-1.3-0.8c0,2.5,0.8,2.7,3.2,3.1c0-1.5,0-2.5,0.4-4
		C469.4,293.2,469.3,293.4,468.6,294.7z M487.8,294.3c0.5,0.3,1.1,0.7,1.6,1C490,294.5,488.6,293.1,487.8,294.3z M481.3,273.1
		c0.7,0.4,1.4,0.7,2.1,1.1C483.2,271.6,483.1,270.8,481.3,273.1z M488.6,256.1h-2.7C485.8,258.2,488,257.8,488.6,256.1z
		 M227.8,177.9c1.2,4.1,2.5,8.3,3.7,12.4c1,3.3,2.9,7.1,2.2,10.5c-3.9-6-7.6-12.2-11.2-18.5c-1.7-3.1-3.4-6.1-5.1-9.2
		c-0.7-1.3-1.9-2.8-2.2-4.2c-0.6-2.4-1.2-1.5,1-2.7c-1.3-1.5-1.9,0-2.6-0.4c-0.8-0.5-2.1-2.4-2.7-3.1c1.7-0.5,7.6-1.2,8.8-2.5
		c1.6-1.7-0.4-3.2-2-4.7c0.6-0.4,1.2-0.7,1.9-1.1C223.3,162,225.4,169.9,227.8,177.9z M319.5,166.1c-1.8-0.5-3-0.8-4.8-1.2
		C316.8,167,316.8,167,319.5,166.1z M237.1,152.7c1.8-1.3,1.6-2.1-0.7-3.1C236.7,150.9,236.9,151.7,237.1,152.7z M236.1,127.4
		c1.1,0.1,4.2,0.4,3.2-1.8c-0.4-1-2.3,0.3-2.6-1C236.5,125.5,236.3,126.4,236.1,127.4z M221.7,126.2c2.8-0.4,2.8-0.4,2.2-3.3
		C223,124.1,222.4,125,221.7,126.2z M274.6,120.9L274.6,120.9C274.6,120.9,274.6,120.9,274.6,120.9L274.6,120.9L274.6,120.9z"/>
	<g id="Ink" transform="translate(-1.000045, 19.255000)">
		<path id="Fill-1" class="st1" d="M624.1,409.5c1.8,0.4,4.5-0.7,5.5-2.4c1.1-2,0.1-3-0.4-5.2L624.1,409.5z M679.8,334.4
			c2.7-2.1,5-4.7,7.5-7.1l-9-3.1L679.8,334.4z M530.7,332.1c3.9,3,7.7,5.9,11.6,8.9c0.7-3.8,1.4-7.7,2.1-11.5
			C539.7,329.7,534.9,330,530.7,332.1L530.7,332.1z M633.2,629.6c2.5,2.8,6.2,3.8,9.7,5c-0.3-3.3-0.7-6.6-1-9.9
			c-0.1-0.9-0.1-7.4-0.8-7.7C639.9,616.5,634,628.1,633.2,629.6L633.2,629.6z M673.8,535.4c-3.8-1.2-6.4-4.8-10.7-4.7
			c0.9,3.1,1.8,6.1,2.7,9.2c0.6,2,1,6.4,2.4,8.1c1.3,1.5,0.6,0.7,1.5-0.7c0.7-1.1,1-2.9,1.4-4.1C672,540.5,672.9,537.9,673.8,535.4
			L673.8,535.4z M763.8,390.9v3.5c-0.6,1.7,0,2.4,1.7,2c3.8,1.3,9.4-1.5,13.4-1.2c-4.6-4.5-9.9-8-15.2-11.6V390.9z M685.7,409.1
			c-4.9,2.8-9.9,5.7-14.8,8.5c4.7,4.4,9.9,8.3,14.8,12.5V409.1L685.7,409.1z M510,463.5c-6,14.6-12,29.3-18,43.9
			c4.6-2.2,9.1-4.5,13.7-6.7c1.6-0.8,4.8-1.6,5.9-3.1c1.1-1.5,0.5-4,0.4-5.7C511.6,482.5,511.6,472.9,510,463.5L510,463.5z
			 M393.9,406c-0.2-10.2-0.4-20.5-0.7-30.7c-11.1,4.7-22.1,9.4-33.2,14.1C371.3,394.9,382.6,400.4,393.9,406L393.9,406z M510,432.1
			c-0.4-16.4-1.1-32.8-1.2-49.2c-0.1-8.5,0.3-16.9,1.1-25.3c0.7-7.3,2.5-15,2.1-22.3c-2.8,1.9-6.5,1.4-9.7,2.4
			c-3.9,1.2-7.5,1.7-11.5,2.4c3.7,15.5,7,31.2,10.1,46.9c1.5,7.8,2.9,15.7,4.3,23.6c0.7,3.9,1.3,7.9,2,11.8
			C507.6,424.4,508,432.3,510,432.1L510,432.1z M769.8,654.4c4.5-8.7,8.7-17.4,14.8-25.1c3-3.8,6.8-6.7,10-10.3
			c3.2-3.5,5.8-7.5,8.7-11.2c-11.1-5.5-21.9-11.6-32.5-18.2c0.2,11.2,0.1,22.4-0.2,33.6C770.5,627.1,767.9,653.9,769.8,654.4
			L769.8,654.4z M516.2,495.8c14.6-7.1,29.1-14.2,43.7-21.3c-7.3-3.9-14.5-7.8-21.8-11.8c-3.7-2-7.3-4-11-6.1c-2.8-1.5-8-6-11.1-6.2
			c-5.3-0.4-2,17.8-1.6,21.2C515.3,479.7,515.7,487.8,516.2,495.8L516.2,495.8z M547.7,328.1c-1,5-4.7,13.1-0.6,17
			c4.7,4.3,10.7,7.9,16,11.5c6.2,4.2,18.9,11.9,23.6,2c2.4-5.1,2-11.8,1.4-17.3c-0.4-3.4-1.4-17-4.1-17.7c-2.2-0.6-6.7,1.3-9,1.6
			c-3.2,0.4-6.4,0.3-9.6,0.9C559.5,327.2,553.7,327.7,547.7,328.1L547.7,328.1z M516.4,436c5-12.6,8.8-25.7,12.5-38.7
			c3.6-12.5,7-25.1,9.8-37.9c0.8-3.5,2.7-8.6,2.3-12.2c-0.4-3.2-5.9-6.3-8.5-8.4c-2.4-1.9-5-5-8.3-5.2c-2.9-0.2-8.2-0.1-9.9,2.6
			c-1.9,3-1.5,9.1-1.9,12.6c-1.2,10-1.6,20.1-1.7,30.1c-0.1,10.3,0.2,20.6,0.5,30.9c0.2,5.8,0.3,11.6,0.5,17.3
			C511.9,431.8,511.8,434.2,516.4,436L516.4,436z M631.8,405.5c5.4-0.9,8.3-4.3,12.9-6.7c2.8-1.4,2.8-0.4,5.2,0.6
			c2,0.9,3.7,0.8,5.4,2.3c3.4,2.8,5.9,7.4,8.9,10.6c4.4,4.7,8.1,0.4,12.7-2.5c1.7-1,7.1-3.3,8-4.9c0.8-1.6-0.5-7.4-0.6-9.1
			c-0.4-6.1-1-12.1-1.6-18.1c-1.3-12.5-2.9-24.9-4.9-37.3c-2.7,1.1-4.5,4.2-6.4,6.3c-2.6,2.9-5.2,5.9-7.7,8.9
			c-4.5,5.4-9,10.9-13.3,16.5c-4.7,6.1-9.6,12.2-13.9,18.5c-1.5,2.2-3.5,4.6-4.8,6.9C630.5,400.3,631.5,402.6,631.8,405.5
			L631.8,405.5z M865.4,469.3c-7.8-4.4-15.7-8.8-23.5-13.1c-6.6-3.7-12.1-8.8-18-13.5c-2.8-2.2-2.7-2.3-5.1,0.4
			c-1.1,1.3-2.2,2.6-3.2,4c-2.3,3.4-3.9,7.4-5.8,11.1c-1.6,3.2-3.3,6.5-4.6,9.8c-0.8,1.8-2.2,4.3-2.5,6.3c-0.3,2.1-0.7,1.5,1.6,3.3
			c6.7,5.3,13.6,10.5,20.5,15.5c3.2,2.3,6.7,4.1,10,6.4c3.4,2.4,3.7,3.7,7.9,2.3c7.2-2.4,12.4-3.8,17.5-9.9
			C866,484.9,865.4,477.9,865.4,469.3L865.4,469.3z M687.3,402.8c3.3-0.8,6.7-3.5,9.6-5.2c5.7-3.4,11.4-6.9,17-10.5
			c9.5-6,20-11.8,28.4-19.3c-9.3-7.5-18.3-15.2-27.8-22.4c-4.5-3.4-9.1-6.8-13.9-9.8c-2.5-1.6-5.1-3.2-7.7-4.7
			c-0.7-0.4-3.3-2.3-4-2.2c-0.6,0.1-2.1,2.1-2.6,2.6c-1.8,1.8-5.1,4.1-5.8,6.5c-0.8,2.5,0.6,6.8,0.9,9.3c0.9,6.3,1.7,12.6,2.5,18.9
			C685.5,378.2,686.5,390.5,687.3,402.8L687.3,402.8z M803.4,623.1c-4.7,6.2-9.7,12.3-14.3,18.6c-4.4,6.1-7.5,13.1-11,19.8
			c7.8,1.8,15.4,4.3,23,6.4c6.2,1.8,11.5,5.1,17.9,6.8c8.1,2,15.1,6.7,23,9c4.7,1.4,6.7-0.9,10.1-4.2c3-2.9,6-6.1,8.4-9.5
			c4.1-5.9,8.7-14.6,9.2-21.8c0-0.5,0-1,0.1-1.6c0.5-1.7-0.1-2.3-2-1.9c-2.1-1-5.7-0.8-8-1.2c-4.1-0.6-7.9-1.6-11.9-2.4
			c-8-1.7-15.6-2.8-23.3-5.7C816.9,632.5,810.3,627.7,803.4,623.1L803.4,623.1z M761.4,397.6c-0.3-4.5,0.5-10.7-0.9-15
			c0.5-1.5-0.1-2.4-1.6-2.5c-1-0.5-1.9-1-2.8-1.6c-1.8-1.2-3.4-2.6-5-4c-1.1-0.9-3.5-3.7-5-3.8c-1.4-0.1-5.5,3.5-6.7,4.3
			c-4.5,2.9-8.9,5.7-13.4,8.6c-8.9,5.7-17.9,11.4-26.8,17.1c-2.2,1.4-4.5,2.9-6.7,4.3c-1.1,0.7-2.3,1.4-3.4,2.2
			c-1.7,0.4-2.2,1.3-1.5,2.8c-0.8,4.5,0.9,10.3,0.8,14.9c-0.1,4.4-0.6,6.9,2.9,10c3.3,2.9,7.2,5.4,10.7,8.1
			c7.7,6,15.8,11.6,23.1,18.1c1.8,1.6,3.5,2.3,5.4,3.5c1.4,0.9,2.3,2.3,3.8,3.3c3.5,2.4,6.9,4.7,10.4,7.1c7.3,5,13.4,11.6,20.9,16.3
			c-0.4-8.5-0.9-17.1-1.3-25.6c-0.2-3.9-0.4-7.8-0.6-11.8l-0.3-5.9c0-0.7-0.1-1.3-0.1-2c0.6-1.8-0.1-2.6-1.9-2.2
			c-2.9-1.2-8.2-0.6-11.4-0.7c-3.9-0.2-7.8-0.5-11.7-0.9c-7.3-0.8-14.9-1.9-21.8-4.5c-5.8-2.2-12.7-6.7-10.9-13.8
			c1.5-6,7.8-10.4,12.8-13.3C731.5,403.1,747,400.5,761.4,397.6L761.4,397.6z M562.5,601.5c3.5,2.8,8.9,3.2,13,5
			c4.3,1.9,8.8,3.3,13.1,5.1c6.5,2.8,13.1,5.2,19.4,8.1c6.2,2.9,13,6.8,19.6,8.6c4.3,1.1,5.5-3.5,7.3-6.8c1.8-3.1,4.8-7,5.1-10.6
			c0.6-8.2-2.9-18.3-5.2-26c-2.3-7.5-5.4-14.8-10.5-21c-10.1-12.3-28.8-16.3-41.7-5.9C569.9,568.3,565.7,586.3,562.5,601.5
			L562.5,601.5z M370.5,511c1.2-19.8,4.2-41.2-2-60.5c-5.3-16.5-19.3-25.9-36.1-28.2c-8.7-1.2-17.8-1.2-26.5,0.2
			c-1.1,0.2-5,0.3-5.7,1.5c-0.5,0.9,1,4.7,1.2,5.7c0.9,4.2,1.5,8.8,2.9,12.9c2.7,8.1,8.8,15.9,13.2,23.1c4.4,7.2,8.9,14.5,14.7,20.7
			c5.6,6,12.1,11.3,18.1,16.9C356.8,509.1,361.5,514.3,370.5,511L370.5,511z M429.3,343.8c-6.1-0.5-12.4-0.5-18.6-0.3
			c-7,0.3-13.9-0.7-20.9-0.7c-12.9,0.1-26-1.4-38.9-0.4c-2.9,0.2-5.7,0.6-8.6,0.8c-2.4,0.2-5.1-0.2-7.3,0.4
			c-2.7,0.8-3.5,1.4-6.3,1.1c-2.9-0.3-4.2,0.4-6.9,1.1c-2.5,0.7-5.1,0.1-7.6,0.6c-2.4,0.4-4,1.2-6.5,1.4c-2.6,0.2-5,1-7.5,1.7
			c-1,0.3-2.2,0.8-3.3,1c-1.9,0.4-2-0.1-2.8,1.4c-1.1,2.2-0.6,8.5-0.5,11c0,2.5,0.3,5,0.5,7.4c0.6,5.8,2,11.1,3.3,16.8
			c0.8,3.5,1.4,7,2.1,10.4c0.2,1.2,0.4,2.6,0.8,3.6c1.2,3-0.2,1.5,1.7,1.7c3.6,0.3,9.6-3.8,12.8-5.5c20-10.9,41.5-19,61.3-30.4
			c9.2-5.3,19.4-8.2,29-12.5c4.7-2.1,9.4-4,14.2-5.8C421.4,348,429.4,347.1,429.3,343.8L429.3,343.8z M395.7,411.7
			c1,32.1,1.4,64.2-0.1,96.2c14.2-2.5,29.2-5.8,42.1-12.3c11.3-5.7,23.4-17.1,20.6-31c-2.7-13.6-14.9-22.9-25.4-30.7
			c-6.2-4.6-12.6-8.7-19.3-12.6C407.8,418,402,414.1,395.7,411.7L395.7,411.7z M583.5,487.2c-3.6,4.2-5.4,11.7-7.5,16.8
			c-2.4,5.6-4.7,11.1-7.1,16.7c-4.7,11.2-9.4,22.3-14.2,33.5c-4.3,10.3-8.7,20.5-13,30.8c-0.8,2-3.7,6.3-3.6,8.4
			c0.1,1.7,2.2,2.4,4.3,3.1c4.1,1.3,8.5,2.2,12.7,3.4c5.2,1.4,5-1.1,6-5.8c1-4.5,2-8.8,3.4-13.2c2.8-8.2,6.4-16.4,12.3-22.9
			c12.4-13.7,33-13.5,45.9-0.2c12.9,13.2,15.9,32.7,19.2,50.1c4.3-6.3,7.3-13.5,10.7-20.3c3.7-7.6,7.3-15.2,10.6-23
			c1.3-3.1,3.1-6.3,3.5-9.7c0.5-3.9-1.3-7.8-2.3-11.5c-1.2-4-2.3-7.9-3.5-11.8c-1.1-3.6-2.2-4.7-5.4-6.5
			c-12.3-6.6-24.4-14.1-36.9-20.1c-5-2.4-10.6-5.1-15.4-8.2c-3-1.9-6-3-9.2-4.5C590.5,490.5,587.3,488.2,583.5,487.2L583.5,487.2z
			 M395.4,400.5c0.2,1.6-0.2,5.3,0.5,6.7c0.7,1.4,5.3,2.9,6.7,3.7c3.9,2.1,7.7,4.3,11.5,6.5c8.2,4.7,16.1,9.7,23.5,15.5
			c12.4,9.7,27.2,24.7,23.8,42.1c-3.2,16.6-20.5,25.3-34.9,30.4c-8.5,3-17.3,4.6-26.1,6.5c-2.1,0.5-4.4,0.4-5.2,2.1
			c-0.8,1.5-0.3,4.8-0.4,6.5c-0.2,3.2,0.6,10.3-1.9,12.7c-1.8-1.8-0.5-7.8-0.3-10.1c0.3-3.2,0.7-6.5,1-9.7c-4.9,0.7-9.8,1.3-14.7,2
			c-1.6,0.2-4.9,0.1-5.6,1.3c-0.7,1.1-0.2,2.9,0.4,3.8c1.6,2.4,6,4.7,8.3,6.5c2.6,2.1,5.5,4.1,8.1,6c11.3,8.3,24,14.6,36.8,21.4
			c7,3.7,14.4,6.7,21.7,10c6.8,3.2,14,6,21.1,8.4c7.8,2.7,15.6,5.7,23.4,8.4c7.8,2.7,15.9,4.5,23.7,7.4c3,1.1,6.2,2.7,9.3,3.2
			c1.7,0.3,3.2,0.3,4.9,0.8c1.1,0.4,3,1.6,4.2,1.5c2.6-0.3,4.4-7.6,5.5-10.2c1.7-4,3.4-8,5.1-12c6.9-16.4,13.8-32.8,20.7-49.3
			c3.4-8.1,6.8-16.2,10.2-24.3c1.2-2.9,5.8-10.7,4.3-12.6c-1.6-2.1-7.2-3.7-9.6-5c-3.1-1.6-5.7-4.1-9.2-3.2c-3.6,0.9-7.1,3.4-10.4,5
			c-7.5,3.7-15.2,7.3-22.8,10.9c-2.4,1.1-4.7,2.2-7.1,3.3c-1.1,0.5-4.8,1.5-5.4,2.5c-0.6,1,0.5,4.8,0.6,6c0.2,2.3,0.5,4.7,0.7,7
			c0.9,8.7,1.8,17.3,2.9,26c2.1,17.7,4.5,35.4,7,53.1c-2.7-1.1-2.4-0.9-3.3-3.2c-0.5-1.5-0.4-3.5-0.6-5.1c-0.4-3.4-0.8-6.8-1.2-10.1
			l-2.3-19.3c-1.6-13.6-3.3-27.1-4.9-40.7c-0.1,13.9-0.8,27.9-2.1,41.8c-0.6,7-1.4,13.9-2.4,20.8c-0.2,1.5-0.6,8.7-1.7,8.9
			c-2.6,0.4-1.3-3.5-1.1-4.8c2.8-26.2,4.7-52,4.7-78.4c-6.9,3.4-13.8,6.6-20.7,9.9c-5.5,2.7-7.6,11.9-10.3,17.2
			c-3.6,7-7.6,13.8-11.5,20.7c-1.9,3.3-3.7,6.6-5.6,9.9c-0.9,1.6-1.8,4.1-3.1,5.4c-1.6,1.5-1,1.5-3.5,0.6c10-16.1,19-32.8,26.6-50.2
			c-11.9,5.6-23.7,11.5-35.5,17.3c-6.4,3.1-12.7,6.2-19.1,9.3c-3.4,1.7-11.9,8.3-15.4,4.2c20.8-12,43.3-21.8,64.9-32.1
			c5.1-2.4,8.1-3.5,10.5-8.8c2-4.4,3.9-8.9,5.8-13.3c4.1-9.8,8-19.7,11.6-29.8c1.5-4.1,2.6-9.3,1-13.6c-1.2-3.3-6.3-5.7-9.4-7.7
			c-8.7-5.5-17.8-10.4-26.4-15.9c-8.4-5.4-16.7-10.7-24.5-16.9c-2-1.6-9.7-5.9-6.5-9.6c2-2.3,10.6,3.6,13.1,4.9
			c8.7,4.5,17.3,9.2,25.9,13.8c8.3,4.5,16.7,10.3,25.5,13.6c-3.3-20.1-6.9-40.2-11.1-60.1c-1.1-5.1-2.2-10.3-3.4-15.4
			c-0.5-2.2-1.7-12.6-3.3-13.4c-1.8-1-9,2.8-10.9,3.5c-3.6,1.2-7.2,2.2-10.8,3.4c-16.5,5.7-33.2,11.5-49.3,18.5
			c-4.1,1.8-8.5,2.6-12.6,4.4c-2.1,0.9-6.9,1.9-8.5,3.3c-2.6,2.2-1.3,8-1.2,11C395.2,390.3,395.3,395.4,395.4,400.5L395.4,400.5z
			 M704,666.9c-3.6-2.3-4.3-7.8-5.5-11.5c-1.6-4.8-3.2-9.6-4.8-14.4c-3.1-9.4-6.4-18.8-9.1-28.4c-5.1-18.3-10.6-36.5-15.9-54.8
			c-6.6,15.7-14.1,31.1-21.7,46.3c-1.7,3.5-4.1,6.9-4.1,10.9c0,4,0.8,8.2,1.3,12.2c0.2,2-0.1,6.5,0.9,8.2c0.7,1.1,2.9,2.1,3.9,2.7
			c2.8,1.6,5.8,2.7,8.5,4.2c12.3,6.7,24.7,13.3,36.7,20.4c11.9,7,23.3,13.7,33.6,23.3c2.4,2.2,5,4.6,6.8,7.3c0.8,1.3,2.4,6.7,4,6.8
			c2.5,0.3,9.4-13,11-15.4c4.3-6.5,8.8-12.9,13.5-19.1c3.7-4.9,3.3-11.6,3.6-17.4c1-16,1-32.2,1.2-48.2c0.1-4.6,2-11.4-2.9-13.6
			c-6-2.7-12-5-17.8-8.4c-11.3-6.6-22.7-12.4-33.9-19.1c-12.5-7.4-25.1-14.7-37.4-22.5c-1.9,5-4.4,10.6-5.4,15.9
			c-1,4.9,2.5,11.3,3.9,16c3.2,10.9,6.4,21.8,9.6,32.7c6.5,22.6,14.2,44.7,22,66.9C705.4,667.5,704.7,667.2,704,666.9L704,666.9z
			 M594.3,322.4c-1.1,0.2-6.5,0.7-7,1.6c-0.5,0.8,0.8,4.2,1,5.3c0.9,4.3,1.6,8.6,2,13c0.6,7.1,0.9,16.9-4.6,22.4
			c-10.2,10.3-28.8-7.1-36.9-13c-1.2-0.8-3.7-3.5-4.8-2.7c-1.2,0.8-1,2.7-1.2,3.9c-0.8,4.2-1.6,8.3-2.5,12.5
			c-1.8,8.1-4,16.2-6.3,24.2c-2.6,9-5.4,17.9-8.2,26.8c-1.4,4.5-2.9,9-4.3,13.5c-0.6,1.8-1.6,4-1.8,5.8c-0.4,2.9-0.1,2.4,2.3,4.2
			c0.9-4.1,4.4-5.4,8.2-6c1.8-0.3,3.6,0.3,5.3-0.2c1.9-0.5,3.6-2,5.5-2.6c7.6-2.4,15.8-2.2,23.5-4.7c3.9-1.2,8-1.5,11.7-3.1
			c1.5-0.7,2.8-1.6,4.4-1.9c1.8-0.4,3.7,0.3,5.4-0.1c6-1.4,12.6-2,19-3.6c6-1.5,14.6-4.2,18.2-9.5c1.8-2.6,4.4-5.9,5.1-9
			c0.8-3.4-0.6-8-1.2-11.4c-2.5-17.1-4.3-34.2-5.3-51.5c-0.2-4.4-0.4-8.8-0.5-13.2c-0.1-2.8,0-2.4-2.5-3.2c-1.1-0.4-3-0.8-4.1-0.7
			c-1.5,0.2-3,1.1-4.6,1.2c-1.5,0.1-2.7,0.3-4.2,0.6C602.1,321.8,598.4,322.4,594.3,322.4L594.3,322.4z M308.9,418.5
			c21.8-2.5,46.6,1.9,58.2,22.6c11.6,20.6,7.7,47.2,6.7,69.8c4.4-0.4,8.9-0.7,13.3-1.5c1.1-0.2,5.8-0.5,6.5-1.3
			c0.5-0.6,0.4-4.9,0.5-5.6c0.7-9.9,0.4-19.8,0.7-29.7c0.6-19.4,0.7-39.5-0.7-58.9c-0.3-3.8-0.7-4-4.1-5.6c-2.1-1.1-4.3-2.1-6.4-3.2
			c-4.5-2.3-9.1-4.5-13.6-6.7c-4-2-8.3-4.7-12.5-6c-4-1.2-8.3,1.2-12,2.7c-8.4,3.4-16.7,6.9-25.1,10.4c-3.9,1.6-7.8,2.9-11.7,4.3
			c-2.5,0.9-4.7,1.2-5.6,3.4c-0.7,1.6-0.5,4.3-0.7,6C304.6,418.9,306.8,418.7,308.9,418.5L308.9,418.5z M511,196.8
			c1.5,3.9,2.3,4.4,5.8,6.4c2.8,1.6,5.4,3.3,8.5,4.3c6.2,2.2,14.3,3,20.8,2c-0.8-2-4.2-7.9,0.3-7.3c3.4,0.4,5.3,6.1,8.9,7
			c6.6,1.6,13.3-2.4,19.3-4.4c2.1-0.7,7.7-2.7,8.2-5.3c0.2-1.2-1.8-3.1-1.8-4.6c0-1.5,1.1-2.9,1.7-4.2c3.7-7.5,8.3-14.2,10.1-22.4
			c-6.9,0.4-13.4,2.1-20.3,1.6c-6.3-0.5-11.7-1.5-17.2-4.5c-3.1-1.6-5.4-3.7-8.9-2.7c-3.3,0.9-6.1,2.2-9.5,2.6
			c-2.7,0.3-2.8,0.5-4.1-1.3c-0.9-1.2-1-3.2-1.7-4.5c-1-2.2-2.4-3.9-4.7-4.7c-4.7-1.6-12.2-0.2-14.1,4.6c-1.3,3.2-0.9,5.2,0.3,8.2
			c0.4,0.9,0.6,2.6,1.3,3.4c0.2,0.2,3.1,1.7,3,1.5c1.1,2.9-3.8,4.4-5.6,4.7c-1.8,0.3-3.6-0.2-5.4,0.1c-2.1,0.3-2,0.5-3.4,2.4
			c-1.4,2.1-1.4,1.6-0.5,3.9c0.7,1.6,2.5,3.3,3.5,4.7C507.4,191.3,509.7,193.8,511,196.8L511,196.8z M623.7,319.5
			c-2,5.9-0.4,13.8,0,20c0.5,6.4,1,12.9,1.6,19.3c1.1,12.1,1.3,25.9,5.3,37.4c7.4-9,13.4-19.2,20.8-28.3c7.6-9.5,15.7-18.6,23.4-28
			c2.4-2.9,2.5-4.1,2-7.8c-0.2-1.7-0.2-7.5-1.4-8.8c-1.3-1.4-7.2-1.8-9.1-2.2c-2.6-0.6-5.3-1.2-7.9-1.5
			C646.8,318,635.2,319.7,623.7,319.5L623.7,319.5z M772.3,440.8c5.6,0.5,11,0.4,16.6,0.4c4.9,0,15.2,2.2,18.9-1.2
			c2.5-2.3,4.5-6.6,6.5-9.5c1-1.4,2.6-3.2,3.4-4.8c1.2-2.6,0.7-1.9-1.7-3.7c-5.8-4.3-11.6-8.7-17.4-12.9c-3.2-2.3-6.5-4.6-9.6-7
			c-2-1.5-3.9-3.9-6.4-4.4c-2.6-0.6-5.3,0.3-7.8,0.7c-2,0.3-4,0.5-6,0.7c-2.1,0.2-3.8-0.1-4.5,1.5c-1.1,2.4,0.3,9,0.4,11.7
			c0.2,3.9,0.3,7.8,0.5,11.7c0.2,4.3,0.4,8.6,0.6,12.8c0,0.7,0.1,1.3,0.1,2c-0.6,1.9,0,2.6,1.8,2C768.9,441.3,771,440.8,772.3,440.8
			L772.3,440.8z M757.8,440.6c2.9,0,4,0.8,4.9-1.3c0.4-0.9,0.1-3,0.1-3.9c0-4.1-0.1-8.2-0.3-12.2c-0.3-7.5-0.1-15.5-1.4-22.9
			c-11.1,2.5-22.1,4.8-32.6,9.1c-6.8,2.8-18.9,7.7-20.6,16c-1.6,7.8,14.4,11,19.6,11.8c5.3,0.8,10.5,1.8,15.7,2.6
			C748,440.3,752.9,440.1,757.8,440.6L757.8,440.6z M773.8,444.1c-1.4,0-7.2-0.5-7.8,0.4c-0.7,1,0.6,7.1,0.6,8.3
			c0.4,5.4,0.6,10.7,0.8,16c0.2,6.1,0.4,12.3,0.8,18.4c0.2,2.4,0.1,5.3,1.2,7.4c1,1.8,3.2,3.5,4.7,5.1c5.6-8.9,12-17.7,16.9-27
			c5-9.3,9.3-19.1,13.9-28.6H773.8L773.8,444.1z M645.7,257.1c4.2,0.3,8.4,1,12.7,0.9c5.4,0,6.4-1,0.6-2.1
			c-6.9-1.3-13.9-2.7-20.8-3.8c-14.9-2.3-29.6-3-44.6-3.5c-4.4-0.1-8.7-0.3-13.1-0.4c-0.6,0-1.2,0-1.8,0c-1.7-0.6-2.4,0.1-1.9,1.9
			c-0.7,1.5-0.5,4.1-0.7,5.7c-0.2,1.7-2.4,10-1.4,11.3c1,1.4,8.7,2.3,10.5,2.7c7.2,1.9,14.4,3.5,21.4,5.8c5.7,1.9,14.8,6.1,20.6,4
			c-3.6-3.2-21.4-16-12.5-21c4.4-2.5,10.6-1.6,15.3-1.7C635.2,257,640.5,257.1,645.7,257.1L645.7,257.1z M214.8,146.6
			c5.9,12,12.7,23.7,20,34.9c1-5.1-2.7-12.2-4.2-17.2c-1.7-5.7-3.4-11.5-5.2-17.2c-3.2-10.4-7.9-20.7-12.3-30.7
			c-2.2-4.9-4.5-9.6-7.3-14.2c-1.9-3.1-3.2-7.7-7.2-7.8c-4.6-0.2-11,1.7-15.5,2.8c-4.3,1-8.7,2-13,3.1c-9.7,2.5-20.2,3.9-29.7,7.5
			c-4.3,1.6-8.8,1.9-13.2,3.4c-5,1.6-10,3.2-15,4.7c-9.2,2.6-19.1,5.5-27.8,9.8c-8.5,4.3-16.4,9.3-24.3,14.5
			c-17,11.3-31.2,25.6-45.4,40c4.5,1,10.8-2.1,15-3.6c4.5-1.5,9.2-3.7,14-3.6c2.1,0,4.4,0.1,5.6,2c1.5,2.2,0,3.8,0.2,6
			c0.2,2.2,1.9,4.5,2.5,6.8c0.7,2.6,1,5.3,1.4,7.9c1.9,11.4,3.7,22,8.4,32.6c1.8,4.1,8.4,22.1,14.7,19.7c4.4-1.7,1.4-7.9,0.7-11
			c-1.1-4.6-1.7-9.2-2.3-13.8c-1.3-10-2.6-18.9,0.7-28.7c1.2-3.7,2.9-9.8,7.1-10.9c3.4-0.9,6.5,1.3,8.2,4.1
			c2.2,3.6,1.9,8.6,2.6,12.7c0.9,4.9,2.2,9.7,3.7,14.5c2.9,8.9,4.5,18.4,7.8,27.1c1.8,5,8.8,18.2,14.7,9.2c2.4-3.8,0-9.5-0.7-13.5
			c-0.8-4.8-1.4-9.5-2.2-14.3c-0.7-4.2-0.9-8.6-1.7-12.7c-0.9-4.4-0.4-8,0.1-12.5c0.3-2.9,0.4-5.9,1.1-8.8c0.4-1.8,1.3-2.8,2.1-4.4
			c1.5-3.5,1.8-6.8,4-10.2c2.3-3.6,4.6-6.6,9.2-6.1c4.4,0.5,8.2,3.3,11.5,6c3.7,3.1,7.2,6.5,10.7,9.8c2.4,2.3,6.8,8.1,10.2,8.5
			c6.4,0.8,2.3-6.3,0.3-8.9c-2.5-3.3-5.5-6-7.6-9.6c-2-3.5-3.7-8.2-2.3-12.3c1.2-3.5,4.3-4.8,6.7-7.2c1.5-1.5,2.1-3.4,3.6-4.9
			c1.5-1.4,3.4-2.6,5.1-3.8c3.8-2.7,7.4-4.8,11.9-6.1c9.2-2.7,19.5-5.8,29.2-5.4c2.8,0.1,8.7,0.5,10,3.7c1,2.6-0.2,2.4-2.5,3.1
			c-2.2,0.6-4.4,1.2-6.5,1.9C213,144.6,213.9,145.6,214.8,146.6L214.8,146.6z M554.3,248.1c-7.9,0-15.3-0.6-23.1-1.6
			c-3.7-0.5-7.7-0.6-11.4-1.4c-3.1-0.7-5.1-2.3-8.3-1.3c-4,1.2-2.9,4.4-3,8.2c-0.1,4.1,0.2,7.9,0.8,12c0.9,6.9,2.2,15.2-1.1,21.6
			c18.1-0.1,36.3,0.2,54.3,2.3c0-13.1-0.5-26.6,3.3-39.3C562,248.4,558.2,248.3,554.3,248.1L554.3,248.1z M658.2,272.8
			c1.2,0.1,2.5,0.1,3.7,0.2c-1.4-5-12.3-4.7-16.2-4.9c-4-0.2-8-0.4-12-0.6c-3.5-0.2-8.5-1.6-11.2,0.8
			C634.2,270.7,646.6,269.6,658.2,272.8L658.2,272.8z M233,93.1c-4.7-0.2-9.8-1.1-14.5-0.6c-2.1,0.2-5.2,1.9-5,4.1
			c0.2,2.1,3,5.2,4.2,7.1c5.5,9.3,9.9,20,13.6,30.1c3.5,9.6,5.9,19.4,8.4,29.1c2.9,10.7,5.4,21.4,7.6,32.2c1-2,2.2-3,2.6-5.2
			c0.2-1.3-0.3-3.1,0.7-4.3c1.7-2.2,7-2.2,9.5-2.6c10.4-1.7,21.4-1.4,31.9-1.5c20.8-0.2,42,1.7,62.5,5.7c8.8,1.7,17.9,2.8,26.6,5.3
			c5,1.5,10.1,2.9,15.1,4.7c3.4,1.2,5.8,2.5,9.2,3c3.8,0.5,7.7,2.3,11.4,3.3c4.5,1.3,8.8,2.8,13.2,4.2c8.9,2.9,17.2,6,25.5,10.3
			c3.1,1.6,9.5,3.1,10.4,7.1c0.3,1.2-0.4,3.3-1.3,4c-1.3,1-3.2-0.5-4.9-1.1c-8.9-3.3-18.1-5.3-27.3-7.7c-8.9-2.3-17.6-5.1-26.4-7.6
			c-1.8-0.5-3.1-1.6-4.7-2.1c-1.6-0.5-3.5-0.3-5.2-0.7c-4.1-1.1-8.2-2.5-12.3-3.6c-3.8-1-7.6-1.8-11.2-2.9c-2-0.6-5.5-1.8-7.6-1.6
			c-3.6,0.2-6.9,5.2-9.2,7.4c-2.5,2.4-4.7,4.9-7,7.5c-5.4,6.3-11.9,11.4-16.7,18.3c-4.3,6.2-8.8,12.4-12.7,18.8
			c-4.5,7.4-9.4,14.4-14,21.8c-2.2,3.6-4.8,6.8-6.7,10.6c-1.7,3.4-3,7.1-4.7,10.5c-3.9,7.7-7.4,14.8-9.2,23
			c-1.7,7.8-4.5,15-5.7,22.9c4.2,0.1,6.2-2.4,9.9-3.6c2.5-0.8,5.7-1.4,8.4-2.1c5.9-1.6,12-2.8,17.8-4.7c6.9-2.2,14.3-2.9,21.4-4
			c6.9-1.1,14.6-1.6,21.6-1.7c13.9-0.1,28-0.3,41.9,1.1c7.6,0.8,14.9,1.1,22.5,2.3c3.4,0.5,6.9,0.9,10.1,2.1
			c2.8,1.1,4.9,0.9,7.9,0.9c-2.2-9-6-17.2-6.5-26.7c-0.4-8.2,6.2-8.7,13.1-10c4.2-0.8,8.4-2.2,12.6-2.2c4.6,0,9.5-0.9,14-1.8
			c3.6-0.8,6.4-2.7,9.8-4.2c3-1.3,6-0.9,9-2c2.4-0.9,7.1-2.8,7.9-5.5c0.9-3.3-1-9-1.5-12.4c-1.3-7.9-0.3-16.4,0.7-24.3
			c1-8.3,1.7-16.5,2.1-24.9c0.3-6,3.2-17.1-1.4-21.6c-5.4-5.4-10.7-11-16.2-16.5c-5.1-5.1-10.1-8.9-15.9-13
			c-6.5-4.7-14-8.3-20.7-12.7c-6.9-4.5-14-8.7-21.3-12.6c-14.8-8-30-14.4-45.8-20.4c-16.2-6.2-33-9.8-49.4-15.1
			c-16.8-5.4-34.8-7.3-52.1-10.3C264.2,94.2,248.3,94.4,233,93.1L233,93.1z M130.9,248.5c0,3.9,1,8.5-2.2,11.4
			c-2.9,2.5-7.8,4.2-11.5,3.7c-8-1.1-13.3-8.2-17-14.7c-4.2-7.3-6.4-15.3-8.5-23.4c-1.1-4.6-2.2-9.1-3.4-13.7
			c-0.6-2.1-1.2-4.2-2-6.3c-0.6-1.7-0.7-3.4-1.8-1.7c-1.8,2.8-1,9.8-0.6,13c0.4,3.7,0.6,7.5,0.9,11.2c0.5,4.6,1.3,9.2,2.1,13.7
			c0.6,3.4,2.7,8.5,1.3,11.8c-3.3,7.8-14.4,3.2-18.8-0.4c-5.9-4.8-10.1-11.9-13.5-18.6c-3.8-7.6-6.9-15.6-8.8-23.9
			c-1.9-8.5-2.2-17.2-4.4-25.7c-7.7,3.5-15.7,7.5-24.2,8.7c-5,0.7-6.2-2.5-10.2-4.1c-2-0.8-0.4-0.2-2.1,0c-0.5,0.1-1,0.8-1.6,1
			c-1.8,0.4-3.7-0.8-4.2-2.5c-1-3.2,3.4-7.8,5.1-10.2c2.4-3.5,4.9-7,7.6-10.4c5.2-6.4,10.9-12.6,16.6-18.5c2.6-2.7,5.9-4.5,8.5-7.2
			c2.5-2.5,5-4.8,7.9-6.8c6.1-4.5,12.8-9,19.5-12.6c13.8-7.5,28.9-13.2,43.9-17.8c14.7-4.5,29.4-8.2,44.2-12
			c7.8-2,15.7-3.6,23.6-5.2c4.3-0.9,8.6-1.6,13-1.9c1.3-0.1,4.3,0.4,5.4-0.3c0.9-0.5,1-2.3,1.6-3c2.5-2.8,4.3-0.4,6.4,1.5
			c2.1,1.9,4.4,2.3,7.4,2.3c7,0,14.3-0.7,21.1-0.2c15.8,1.2,31.6,0.1,47.4,2.3c31.2,4.2,61.4,10.6,91.5,19.7
			c-0.2-2.8-3.8-5.1-5.4-7.3c-2.2-2.9-4.3-5.9-5.6-9.3c-2.7-7.1-2.1-15.4,2.4-21.6c4.6-6.6,12.6-10.9,20.4-12.4
			c4-0.8,8.9-1.1,12.9-1c4.4,0.2,8.1,2.2,12.3,3.2c-0.2-12.2,5.8-25.4,18-29.1c6.6-2,13.4-0.4,20.1-0.5c6.3-0.1,12.1,1.9,18.1,3.8
			c2.8,0.9,4.9,2,7.4,3.4c2,1.2,4.2,1.9,6.2,3.2c3.5,2.3,7,4.9,10.1,7.7c4.2,3.8,8.8,7.1,12.3,11.6c3.8,4.8,6.6,10.1,9,15.8
			c2.5,6,3.9,11.8,5.6,18c0.9,3.3-0.4,1,2,2.1c1.5,0.6,4.3,0.5,5.9,0.6c2.9,0.3,5.8,0.7,8.7,0.8c6.3,0.3,12.6-0.1,18.9,0.8
			c4.6,0.6,9,2.1,13.6,2.5c5.1,0.5,10.5,2.6,15.3,4.6c5,2.1,10.6,3.4,14.8,6.9c7.8,6.4,15.5,14.3,17.1,24.9c0.9,6.1-0.1,13-0.6,19.1
			c-0.4,4.5-1.7,8.8-4.7,12.2c-1.9,2.2-3.6,3.2-6.1,4.4c-2.5,1.3-0.9-1.5-2.6,1.6c-0.5,0.9-0.7,2.4-1,3.5c-1.8,5.6-4.1,11.1-7.5,16
			c5,1,4.3,7.6,2.6,11.1c-2.3,4.7-7.2,6.5-11.3,9.2c-4.7,3.1-9.7,4.3-15.2,5.4c-2.5,0.5-5.1,1.3-7.6,1.7c-2.4,0.3-4.7-0.3-7-0.2
			c-5.2,0.2-10.1,0.3-15.3-0.5c-1.2-0.2-5-1.2-6.2-0.5c-1.4,0.8-1,4.4-1.1,6.4c-0.1,2.1-1,7.2,0.4,8.2c0.9,0.7,5.4,0.4,6.5,0.5
			c5.1,0.4,10.3,0.6,15.4,1c4.5,0.3,9.3,0.5,13.7,1.8c3.5,1,7.5,5.5,10.8,5.4c2.2,0,5.2-1.9,7.3-2.5c2.3-0.7,4.6-1,7-1.2
			c5.1-0.5,10.2-0.6,15.2-1c9.6-0.8,19.8,0.9,29.2,2.5c10.8,1.8,21.7,2.5,32.4,4.7c8.7,1.8,16.8,3.7,18.2,13.5
			c1.6,10.7-7.1,10.6-15.4,11.4c1.2,2.8,3.5,6.7,2.9,9.9c-0.8,4-4,3.3-7.3,3c-10.9-0.9-22.2-4.9-32.9-7.3c1.7,3.6,4.8,11.2-0.6,12.8
			c-5.5,1.7-14.2-1.4-19.5-2.7c-12.9-3.2-25.8-6.5-38.5-10.6c-0.5,3.4-1.1,6.8-1.7,10.1c-0.2,1.4-0.6,2.9-0.4,4.4
			c0.2,1.4,1.2,2.5,1.3,3.8c0.6,6.4-8.8,4.6-12.6,4.5c-13.9-0.5-27.7-2.9-41.6-3.4c-3.7-0.1-7.3-0.9-10.9-1.3
			c-3.6-0.4-4.4,0-6.8,2.4c-4.5,4.4-12.3,5.5-18.2,7.4c-7,2.3-12.7,4.5-20.1,4.5c-3.7,0-7.3,0.1-10.9,0c-3-0.1-6.6-1-9.5-0.5
			c1,4.4,3.1,8.6,4.8,12.8c1.7,4.2,3.1,9.4,5.5,13.3c1.4,2.3,1.9,2,4.6,1.1c1.9-0.6,3.6-1.5,5.4-2.3c3.7-1.6,7.6-2.7,11.5-3.9
			c16.6-5,33.6-8.3,50.5-11.6c7.9-1.6,16-3,23.9-4.4c8.2-1.4,16.3-1.6,24.5-2.4c7.7-0.8,15.4-2.2,23.1-3.2c3.3-0.4,6.7-0.1,10-0.4
			c1.5-0.1,2.7-1,4.1-1.2c1.7-0.2,3.1,0.5,4.9,0.5c3.8,0.1,7.9-0.8,11.7-1.1c4.1-0.3,8.2-1,12.4-1c7.8,0,15.6,0.9,23.4,1.8
			c7.1,0.9,15.5,2.9,22,5.9c3.3,1.5,6.2,3.1,9.5,4.5c3.4,1.4,6.6,3.3,9.5,5.4c5.4,3.9,11.1,7.4,16.6,11.3c6.1,4.3,12,9,17.9,13.5
			c6.2,4.7,12,9.8,18.2,14.5c6,4.5,13.2,8.4,18.7,13.4c4.7,4.2,10.4,8.1,15.5,12c6,4.6,11.4,10,17.5,14.5
			c6.5,4.8,11.6,12.2,18.5,16.3c1.8,1.1,4,0.7,4.9,2.7c0.9,2.3-1.2,8.2-1.7,10.6c-2.8-0.8-6,1.1-4.1,4c0.7,1.1,3.4,1.9,4.4,2.6
			c1.8,1.1,3.4,2.7,5.3,3.6c2.3,1.1,3,0.5,5,2c1.2,1,2.1,2.3,3.3,3.2c2.8,2.1,6,3.9,8.9,5.8c3.2,2,6,4.8,9.2,6.7
			c1.4,0.9,2.6,1.3,4.3,0.9c1.7-0.4,2.2-2,4.1-1.4c2.3,0.7,1.9,2,4.7,1.6c1.9-0.3,3.9-0.9,5.8-1.5c4.1-1.4,8.1-3.1,12-5
			c3.4-1.6,6.2-3.8,9.3-5.7c3-1.8,6.4-2.9,9.6-4.2c7.2-3,14.5-5.8,21.6-9c6.3-2.8,13.2-7.4,20-8.8c6.5-1.3,14.8-2.2,21.2-0.6
			c3.7,0.9,16.1,7.1,13,11.6c-2.2,3.1-7,5.8-9.9,8.2c-3.3,2.7-6.6,5.5-10,8.2c-12.2,9.8-24.9,18.6-36.8,28.9
			c-12.5,10.8-25.5,20.9-38.1,31.6c-6.6,5.6-13.2,11.3-19.6,17c-3.1,2.7-6,6.5-9.5,8.8c-2.2,1.5-1.8,0.9-4-0.6
			c-1.3-0.9-2.6-1.6-4-2.3c-6.2-3.3-12-7.7-17.5-11.9c-2.3-1.8-5.7-2.9-7.2-5.5c-1.6-2.8-0.7-5-0.4-7.9c0.1-1.8,0.7-1.1-0.2-2.7
			c-0.4-0.6-1.8-1.4-2.4-1.8c-1.6-1.2-3.1-2.3-4.7-3.5c-3.2-2.4-6.3-4.9-9.3-7.6c-4.9-4.4-10.2-8.7-13.2-14.7
			c-5.7,8.6-11.4,17.1-17.6,25.4c-2.4,3.2-5.3,7.7-9.4,9c-4.6,1.4-3.1-2.2-3.8-5.2c-0.9-3.7-7.5-6.7-10.9-8.7
			c-4.1-2.5-8.7-4.6-12.6-7.5c-5.7-4.2-11.4-8.9-17.4-12.4c-6.3-3.6-11.6-7.7-17.4-12.3c-7.6-5.9-15.7-11-23.2-17
			c-14.8-11.9-30.3-23.9-38.1-41.6c-3.8,3.1-7.1,6.4-11.1,9.3c-1.4,1-2.8,2.9-4.1,3.4c-2.3,0.9-4.3,0.1-6.7,1.4
			c-9.8,5.2-19.8,9.3-31,10.2c-5.3,0.4-10.5,2-15.8,2.7c-4.9,0.6-9.4,2.3-14.3,3.2c-2.9,0.5-5.6,1.6-8.5,2.1
			c-2.6,0.4-5.2,0.2-7.8,0.4c-5.6,0.5-11.2,1.4-16.7,2.1c10,7.2,22.5,12.2,33.6,17.6c22.7,11.2,45,22.8,67.5,34.4
			c24.1,12.4,46.6,27.6,70.5,40.6c21.7,11.8,41.9,25.7,64.1,36.5c10.8,5.2,20.1,13.1,30.4,19.2c4.5,2.7,9.8,6.3,11.4,11.8
			c0.9,3.1-0.6,3.9-2.1,6.4c-0.6,0.9-1,2.4-1.3,3.4c-1,2.4-1.7,2.5,0,4c1.9,1.7,6.2,2.6,8.5,3.4c2.7,1,5.5,1.7,8.3,2.3
			c5.6,1.1,11.4,1.5,17,2.2c5.7,0.7,11.5,1.6,17,2.2c1.3,0.1,2.7-0.4,4-0.4c1.7,0,3.7,0.3,5.4,0.4c2.9,0.2,5.6,0,8.4-0.1
			c5.5-0.1,10.8,1.2,16-0.2c5.1-1.4,10-2.3,15-4.3c12.7-5,25.7-9.7,38.2-15.2c6.1-2.6,12.2-5.7,18.5-7.8c5.2-1.7,11.1-4.2,16.5-4
			c12,0.5,23.3,0.1,32,9.7c1.9,2.1,3.9,3.9,5.8,5.9c0.4,0.4,1.7,1.8,1.7,2.3c0,0.3-4.1,2.8-4.4,3c-5,3.6-9.9,7.4-14.8,11.1
			c-9.7,7.4-20.7,13.3-30.7,20.4c-11.1,7.7-21.5,16.4-32.2,24.6c-10.2,7.8-20.3,15.8-30.1,24.2c-5.5,4.7-11.4,8.9-17.3,13
			c-2.6,1.8-5.2,3.7-7.8,5.5c-1,0.7-2.1,1.4-3.1,2.2c-1.1,0.7-2.1,1.5-3.2,2.2l-1.6-1.2c-2.5-1-5.3-3.9-7.3-5.7
			c-1.7-1.5-3.8-2.6-5.5-4.2c-4.2-3.8-9.4-5.5-14.8-7.6c-7-2.7-14-5.4-21.1-7.9c-2.6-0.9-5.6-1.6-8-2.9c-1.9-1-3-2.2-5.2-3
			c-9.4-3.3-19.4-6.7-28.6-11.4c-2.4-1.2-5.1-1.8-7.4-3.1c-3.1-1.8-3.3-3.1-6.1,0c-4.1,4.6-7.7,10.1-11.3,15.1
			c-4,5.6-7.9,11.2-11.8,16.9c-1.8,2.6-3.3,4.6-6.1,6.1c-1.6,0.9-5.4,3-7.4,2.6c-0.6,0-1.1-0.3-1.5-0.7c-0.9-1-0.5-1.6,1.1-1.8
			c1.2-2.1,1.5,1,1.1-2.3c-0.3-2.3-2.9-4.7-4.4-6.2c-4.5-4.7-10.2-8.7-15.4-12.5c-10-7.4-21.2-12.9-32.1-18.7
			c-2.8-1.5-5.1-3.8-7.9-5.3c-2.1-1.2-4.4-1.7-6.6-2.8c-5.9-3.3-11.8-6.4-17.8-9.4c-11.4-5.7-23-11.4-34.6-16.8
			c-6-2.8-12.4-4.5-18.4-7.3c-5.3-2.5-10.9-4.9-16.4-6.9c-10.5-3.8-21.6-7.1-32.4-9.9c-5.5-1.4-11.1-3-16.6-4.7
			c-2-0.6-4.1-1-5.9-1.6c-2.8-1-5.2-1.8-8.1-2.5c-6.7-1.5-13.5-3.7-20.1-5.8c-5.9-1.9-12.5-3.2-18-5.8c-4.2-2-8.1-2.9-12.4-4.6
			c-2.1-0.8-3.7-2.1-5.7-2.9c-2.5-1-5-1.6-7.4-2.8c-2.9-1.4-6-2.3-8.8-3.6c-2.6-1.2-5.2-2.3-7.9-3.4c-5.9-2.3-11.6-5.4-17.4-8
			c-4.7-2.2-9.4-4.6-13.7-7.5c-1.7-1.2-3.2-1.5-5.2-2.3c-2.2-0.9-3.6-2.6-5.7-3.8c-4.6-2.6-9.6-5.1-13.5-8.6
			c-3.8-3.5-8.4-6.6-12.7-9.4c-11-7.1-21.1-13.6-30.3-23.1c-4.7-4.8-9.3-9.7-14-14.5c-4.7-4.8-8.4-11.1-12.1-16.6
			c-6.7-9.9-13.2-21.6-17.2-32.8c-2.2-6.2-3.2-12.9-4.2-19.3c-0.6-3.5-1.2-7-1.2-10.5c0-1.9,0.3-2.1-1-3.3c-0.8-0.8-2.6-1.3-3.6-1.9
			c3.9-4,6.5-6.7,5.3-12.7c-1-5.3-3.1-10.6-4.3-15.9c-2.5-11.1-4.1-21.2-3.1-32.6c-1.9,0.3-3.1,0.2-4.6,1.6c-0.5,0.7-1,1.4-1.4,2.1
			c-0.9-0.5-1.7-0.9-2.6-1.4c-2.3-0.4-2.3,1.6-4.6,0.1c-1.2-0.8-1.9-2.3-1.9-3.7c0.1-1.8,1.3-2.3,2.2-3.6c1.5-0.4,1.9-1.3,1-2.6
			c-0.3-1.1-0.6-2.3-0.8-3.4c-1-4.8-0.5-8.8,0.4-13.5c1.8-9.5,3.4-19.4,6.5-28.6c2.9-8.6,6.9-17.1,11.2-25.1
			c8.4-15.8,18.8-29.9,29-44.5c2.1-3,4.3-5.3,6.7-8c2.4-2.8,4.2-6.2,7.2-8.5c2.9-2.3,5.2-5,8.1-7.4c3.2-2.7,7.3-4.3,9.3-8
			c-8.5-1-16.9-2.4-25.4-3.6c-7.2-1.1-14.6-0.9-21.9-1.7c-4-0.4-8.1,0.3-12.2,0c-4.1-0.2-8.2-0.6-12.2-0.9
			c-4.4-0.3-8.8,0.1-13.1-0.2c-2.4-0.1-5.4-1.4-7.7-0.5c-2.8,1.2-3.6,4.9-4.8,7.3c-1.4,3-3.6,5.5-4.5,8.8c-0.8,2.8-5,15-7.8,6.3
			c-0.7-2-0.2-3.9-1.3-5.9c-0.7-1.4-1.8-2.5-2.7-3.7c-1.6-2.3-2.9-4.8-4.3-7.2c-3.7-6.5-7.1-13.1-10.9-19.5c-3.8-6.3-7-12.7-10-19.5
			c-1.5-3.4-2.6-7.7-4.7-10.7c-1.9-2.8-2.3-1.7-5.6-0.4c-7.1,2.7-13.8,4.7-20,9.3c-2.1,1.6-3.9,3.7-6,5.2c-2.4,1.8-4.8,2.6-6.4,5.3
			c-3.8,6.5,2.9,11.3,6.5,16.5c3.1,4.6,7.4,12.3,4.2,17.8c-3.4,5.8-12.3,3.3-16.8,0.6c-5.7-3.4-10.7-8.1-15.5-12.7
			c-2.6-2.5-5.5-6.8-8.6-8.6c-3.1-1.7-3.7,0.4-5.4,3.4c-3.2,5.8-4,11.9-5.1,18.3C124.8,217.6,129.4,233.4,130.9,248.5L130.9,248.5z"
			/>
		<path id="Fill-3" class="st1" d="M313.9,581c-16.5-17.8-31.3-36.2-41.9-58.2c-4.8-9.9-9.6-20.6-12.6-31.1
			c-3.1-10.8-5.1-21.8-8.5-32.5c-1.1-3.6-3.2-10.8-7.1-12.5c-1.5-0.7-5.7-0.2-7.4,0c-3.7,0.4-4.4,1.1-4.9,4.9
			c-1.4,10.8,1.7,23,4.1,33.5c4.9,20.6,15.6,40.8,29.9,56.5c7.2,7.9,14.9,15.3,23.2,21.9c4.5,3.5,8.8,7.2,13.4,10.6
			C305.7,576.6,309.5,580.1,313.9,581 M226.5,459.7c-0.3-6.1-0.1-15.6,4.4-20.4c2.5-2.8,4.5-1.1,7.5-0.3c3.2,0.9,6.7-0.5,9.7,0.9
			c5.6,2.7,8.1,12.2,9.7,17.6c2.8,8.8,5.1,17.8,7.7,26.7c8.4,28.9,23.5,55.6,43.6,77.9c10.2,11.3,21.1,22,32,32.6
			c2.7,2.6,5.4,4.7,4.7,8.8c-0.3,1.8-0.8,3.2-2.6,3.7c-2.3,0.6-7.3-3-9.2-4c-3.6-1.8-7.1-3.6-10.6-5.5c-13.2-7-25.1-15.8-36.8-25.1
			c-11.3-9-21.7-19-30.5-30.5C237.5,518.1,229.1,489.6,226.5,459.7"/>
		<path id="Fill-5" class="st1" d="M1022.1,632.3c-7.2,14.2-18.5,24.6-31.3,33.9c-6,4.4-12.5,7.6-18.3,12.4
			c-5.6,4.7-12.1,8.2-17.9,12.6c-5.7,4.3-11.8,8.4-17.8,12.2c-2.9,1.8-4.8,4.6-7.7,6.5c-3.2,2.2-6.5,4.2-9.6,6.4
			c-6.1,4.4-11.4,8.5-18.3,11.8c-6.2,2.9-13.8,0.2-19.4-3.2c3.6-4.3,10.5-6,14.6-9.7c5.2-4.6,11.3-8,16.8-12.4
			c11.3-9.2,22.8-18,34.1-27c12.7-10.1,25.5-20.3,38.9-29.4c12.6-8.5,24.7-17.2,36.4-26.9c1.2,2.6,2.8,5.2,3,8.1
			c0.1,1.2,0.3,2.8-0.3,3.9C1024.4,633.9,1024.3,633.1,1022.1,632.3"/>
		<path id="Fill-8" class="st1" d="M676.9,139.7c-1.6-9.1-2.9-18-6.3-26.6c-3-7.7-7.6-14.9-12.5-21.5c-4.5-6.2-9.9-11.5-15.2-17
			c-4.9-5-10.2-10.7-16.8-13.4c-4.2-1.7-16.4-3-17.9,3.1c-1.5,6.1,5.1,11.5,8.8,15.1c11.2,10.9,24.6,19.5,36,30.3
			c5.4,5.1,11,10.1,15.3,16.1c1.3,1.8,8.9,16.6,9,16.6C677.2,141.4,677,140.5,676.9,139.7 M674.4,166.1c0-6.5,0.1-12.5-2.3-18.7
			c-2.2-5.6-5.7-10.5-9.1-15.5c-3.5-5.1-7.6-9.1-12.3-13c-4.4-3.7-8.3-8-12.9-11.5c-8.9-6.9-17.5-14.9-25.5-22.9
			c-6.1-6.1-11.2-15.7-7.4-24.4c3.7-8.5,16.3-11.3,24.3-7.3c9.6,4.7,17.7,12.4,25,20.1c7.3,7.7,13.7,16.4,18.5,25.8
			c2.4,4.7,5,9.6,6.2,14.8c1.2,5.3,1.8,10.7,2.7,16.1c1.8,10.6,3.3,23.3,0,33.8c-0.6,1.8-4.3,11.2-6.5,8.1
			C673,168.8,679.6,167.7,674.4,166.1"/>
		<path id="Fill-10" class="st1" d="M882.2,542.8c-0.9,0-1.9,0-2.8,0c-0.5,0.6-0.9,1.2-1.2,1.9c-0.6,0.4-0.6,1.1-1.5,1.4
			c-1.6,0.5-5.5-1-6.9-1.5c-0.9-0.4-3.5-1.2-3.5-2.5c0-0.6,3.3-2.6,3.7-3c3.2-2.7,6.2-5.6,9.3-8.3c11.9-10.4,24.1-20.6,36.4-30.8
			c12.7-10.5,25-21.8,38.4-31.5c12.7-9.2,26.6-18.7,36.8-30.8c8.2,9.3-3.8,20.9-10.2,27.2c-4.8,4.7-10.9,8.2-16.2,12.3
			c-5.6,4.3-11.5,8.3-17.2,12.5c-11.4,8.4-20.4,19.3-30.7,29C906.1,528.3,894.1,535.1,882.2,542.8"/>
		<path id="Fill-12" class="st1" d="M179.4,408.7c-2.3,1.2-4.8,1.8-6.7,3.7c-1.8,1.9-3,4.5-4.2,6.8c-2.3,4.6-4.2,9.3-4.7,14.4
			c-1,10.4,0.2,23.1,3.3,33.1c6.3,20.5,18.3,39.2,35,52.6c-7.8-21.7-16.3-44.6-13.1-68.1c0.8-5.8,2.8-11.1,5.5-16.3
			c2.6-4.9,5.7-9.1,5.9-14.9C200.8,408.5,187.9,408.5,179.4,408.7 M209.1,532.9c-6.3-1.2-10.5-6.2-15.2-10.4
			c-4.4-3.8-8.6-7.8-12.1-12.4c-7.3-9.3-12.2-20.7-16.5-31.7c-7.5-19.1-9.8-43.6-1.1-62.6c3.8-8.1,8.4-17.7,18.5-18.6
			c5.7-0.5,6.9,2.7,11.5,4.6c3.8,1.5,6.9,2,9,5.9c5.3,9.6,2.5,21.7-2.3,30.8c-5.3,10.2-7.3,19.1-5.8,30.6c1.4,11,4.6,22,8,32.5
			C205.9,510.5,214.6,523.8,209.1,532.9"/>
		<path id="Fill-14" class="st1" d="M784.7,203.2c-15.6,1.6-30.2,5.7-39,19.8c-7.8,12.6-4.9,28.7,8,36.7c12.2,7.6,27.6,6.5,39.9-0.4
			c11.4-6.4,20.6-18.9,18.7-32.5C810.2,211.8,798,205.8,784.7,203.2 M776.2,196.7c9,0,18.3,0.1,26,5.6c7,4.9,12.1,11.5,13.9,19.9
			c7.1,33.2-32.2,62-61.6,44.7c-14.5-8.6-19.6-25.8-14.1-41.4C745.7,210.2,760.4,199,776.2,196.7"/>
		<path id="Fill-16" class="st1" d="M213.5,37.9c4.1,0.4,8.1,1.6,12.1,2.3c3.7,0.6,7.2,0.7,10.8,1.7c7.2,1.9,14.9,2.3,22.2,3.6
			c4.1,0.7,8.2,1.7,12.3,2.2c3.2,0.3,2.4,0.6,2.8-1.8c0.4-2.3-0.5-5.5-0.7-7.8c-0.8-8.6-1.6-17.3-2.3-25.9
			C251.6,20.6,232.6,29.2,213.5,37.9 M278,54.6c-7,0-14.2-2-21.1-3.2c-7-1.3-14-2.6-21-4c-7.5-1.5-15.1-2.3-22.5-3.8
			c-2.5-0.5-15.4-1-11.7-6.5c1.2-1.8,6-3.4,8-4.4c3.2-1.6,6.5-3,9.7-4.6c6.3-3.1,12.4-6.6,18.7-9.6c6.4-3.1,13.1-5.6,19.4-9.1
			c4.6-2.5,11.9-4.4,14.6-9.2c2.8,8.3,3.2,16.6,4,25.3C276.9,35.2,278,44.8,278,54.6"/>
		<path id="Fill-19" class="st1" d="M866,295.6c3.9,0.5,7.9,0.9,11.8,1.2c-0.6-5.7-1.9-11.2-3.1-16.8c-0.3-1.5-3.4-13.6,0.6-11.4
			c1.8,1,2.7,9.7,3.2,11.7c1.3,5.2,2.7,10.4,3.9,15.7c0.5,2.1,1.1,4.2,0.6,6.3c-0.7,2.9-1.7,3-4.3,2.5c-4.5-0.7-9-1.5-13.5-2.2
			c-8.8-1.5-17.8-2.1-26.5-3.8c-4.2-0.8-8.2-1.6-12-3.7c-2.9-1.6-8.3-2.8-10.6-5c-5.6-5.2,9.9-8.1,12.6-8.9c8.6-2.6,17.2-5.2,25.7-8
			c3.8-1.3,7.8-2.2,11.5-3.8c2.7-1.1,7-1.8,5.4,2.6c-1.3,3.8-4.3,4.3-7.8,5.1c-4.5,1.1-8.9,2.4-13.3,3.6c-8.9,2.4-17.8,4.9-26.7,7.6
			c6.5,3.3,12.8,4,19.9,4.7C851,293.7,858.5,294.8,866,295.6"/>
		<path id="Fill-21" class="st1" d="M759.5,340.2c19,5.4,37.5,12.2,55.9,19.4c16,6.2,31.9,13.4,46.5,22.4c3.5,2.2,7.9,4.5,10.7,7.6
			c2.2,2.4,1.8,5.1-1.9,4.1c-4.2-1.1-8.8-4.2-12.8-6.1c-3.8-1.8-7.6-3.7-11.4-5.5c-15.3-7.5-31-14.3-46.6-21.3
			c-8.1-3.7-16.5-6.6-24.9-9.8c-4-1.5-7.8-3.3-11.7-5C760.5,344.7,758,343.9,759.5,340.2"/>
		<path id="Fill-23" class="st1" d="M717.9,144c9-15,16.7-36.4,1.1-50.2c-0.9,11.3,0.6,22.7,0.1,34.1L717.9,144z M712.2,127.3
			c1.1-10.9-2.6-24.5,2.2-34.7c2-4.2,5.6-8.2,10.4-5.4c4.4,2.6,6.4,8.7,8,13.3c4.4,12.2,0.6,24-4.9,35.1c-2.6,5.2-5.5,10.9-9.5,15.3
			c-1.9,2.1-8.8,9.2-11.8,6.2c3.5-4.3,6.3-7.3,5.7-13.1C711.8,138.4,712.1,132.8,712.2,127.3L712.2,127.3z"/>
		<path id="Fill-25" class="st1" d="M547,692.7c0.9-0.1,1.8-0.3,2.7-0.4c1.5,0.2,2-0.4,1.3-2c0.4-1.6-0.2-3.9-0.2-5.5
			c-0.2-3.8-0.3-7.6-0.3-11.4c0-1.3,0-2.6,0-3.8c-0.6-0.2-1.3-0.3-2-0.5c-1.7-1-4.8-1.1-6.7-1.6c-4.2-1-8.3-1.9-12.5-2.9
			c-1.2,9.9-2.5,19.7-3.7,29.6C532.7,693.8,539.8,693.2,547,692.7 M552,699.8c-7.4,0.2-14.9,1.3-22.3,1.6c-1.9,0.1-6.3,1.1-8,0
			c-1.9-1.1-1.1-3.3-1-5.3c0.6-7.4,1.4-14.8,2.2-22.2c0.3-3,0.4-14.8,5.3-15c-0.1,0,2.6,1.9,2.9,2c1.4,0.4,2.9,0.1,4.3,0.2
			c2.8,0.2,5.1,0.3,7.8,0.1c3.7-0.3,10.8-0.4,12.3,3.7c0.8,2.3,0.3,5.3,0.3,7.6c0.1,3.5,0.3,6.9,0.3,10.4
			C556.1,688.4,557.6,697,552,699.8"/>
		<path id="Fill-27" class="st1" d="M200.1,260.5c2.9,4.7,5.1,10.1,7,15.3c0.8,2.2,1.1,4.3,3.8,4.2c0.6,0,1.3-0.9,1.9-1.1
			c1.6-0.6,3.2-0.9,4.8-1.3c2.4-0.7,14.3-5.5,16-3.7c0.8,0.8,0.1,3.5-0.5,4.3c-1,1.3-4,2.1-5.5,2.7c-2.6,1.2-5.3,2.2-8,3.1
			c-1.7,0.6-3.4,1.2-5,1.8c-1.8,0.6-2.8,0.5-3,2.2c-0.3,2.4,2.3,7.2,3.1,9.5c0.9,2.8,2.5,5.9,2.7,8.9c0.2,2,0.1,5.8-2.6,5.4
			c-2.3-0.3-2.9-4.1-3.5-5.8c-2.1-5.8-4.1-11.6-6.6-17.2c-8.7,4.1-18.1,6.6-27.5,8.5c-2.1,0.4-3.3,1.5-4.1-0.5
			c-0.5-1.1-0.2-1.8,0.4-2.7c1.1-1.5,7.1-3.4,8.7-4.2c3.7-1.8,7.7-3.2,11.6-4.5c2.3-0.8,7.5-1.3,8.7-3.7c1-2.1-2.6-9.3-3.2-11.5
			C198.4,266.4,196.8,263.4,200.1,260.5"/>
		<path id="Fill-29" class="st1" d="M878.5,364.3c-15-4.6-30.3-8.7-45.1-14c-3.2-1.1-35.8-12.7-33.1-16.3c0.8-1.1,16.4,6.5,18.5,7.3
			c7,2.5,14.1,4.9,21.2,7.1c7.2,2.2,14.7,4,21.7,6.9C864.5,356.4,879.9,360.7,878.5,364.3"/>
		<path id="Fill-31" class="st2" d="M216.1,86.1c4.5-0.1,8.9-0.3,13.4-0.4C225.8,87.3,220.1,86.1,216.1,86.1"/>
		<path id="Fill-35" class="st2" d="M776.2,196.7c3-1.1,5.9-0.7,8.9,0L776.2,196.7"/>
		<path id="Fill-37" class="st2" d="M313.9,194.3c-2.1,0-4.2,0-6.3,0C309.7,194.3,311.8,194.3,313.9,194.3"/>
		<path id="Fill-39" class="st2" d="M130.9,248.5c0,2.2,0,4.5,0,6.7C130.9,253,130.9,250.7,130.9,248.5"/>
		<path id="Fill-41" class="st2" d="M543.1,661.2c2.2,0.2,4.4,0.3,6.7,0.5C547.6,661.5,545.3,661.4,543.1,661.2"/>
		<path id="Fill-43" class="st2" d="M530.6,234.5c2.3,0.2,4.5,0.4,6.8,0.6C535.1,234.9,532.8,234.7,530.6,234.5"/>
		<path id="Fill-45" class="st2" d="M297,193.5c-1.6,0-3.2,0-4.8,0C293.8,193.5,295.4,193.5,297,193.5"/>
		<path id="Fill-47" class="st2" d="M618.4,238.9c2,0.2,4,0.4,6,0.5C622.4,239.2,620.4,239,618.4,238.9"/>
		<path id="Fill-49" class="st2" d="M530.7,97.1c2-0.7,4-1,6,0C534.7,97.2,532.7,97.1,530.7,97.1"/>
		<path id="Fill-51" class="st2" d="M893.2,440.6c1.5-0.7,2.4-2.1,3.9-0.9C896.2,441.3,894.8,440.5,893.2,440.6"/>
		<path id="Fill-53" class="st2" d="M592,307.4l-5.2,0.6L592,307.4z"/>
		<path id="Fill-55" class="st1" d="M552,699.8c-1.1,0-2.3,0-3.4,0.1C549.7,699.8,550.8,699.8,552,699.8"/>
		<path id="Fill-57" class="st2" d="M287.4,89.3c1.8,0.2,3.5,0.3,5.3,0.5C290.9,89.7,289.2,89.5,287.4,89.3"/>
		<path id="Fill-59" class="st2" d="M849.9,627.8c1.7,0,3.4,0,5.1,0C853.3,627.8,851.6,627.8,849.9,627.8"/>
		<path id="Fill-61" class="st2" d="M986.9,597.6c1.7,0,3.4,0,5.2,0C990.4,597.6,988.7,597.6,986.9,597.6"/>
		<path id="Fill-63" class="st2" d="M552.1,235.9c1.7,0.2,3.5,0.3,5.2,0.5C555.6,236.2,553.9,236.1,552.1,235.9"/>
		<path id="Fill-67" class="st2" d="M445.2,307.7c-0.4,0-3.5,0.3-3.7-0.3C442.6,307.2,444.1,307.6,445.2,307.7"/>
		<path id="Fill-69" class="st2" d="M554.2,442.6c-1.1,0-2.3,0-3.4,0.1C551.9,442.6,553.1,442.6,554.2,442.6"/>
		<path id="Fill-71" class="st2" d="M658.4,305.3c1.7,0.2,3.4,0.3,5.1,0.5C661.7,305.6,660,305.4,658.4,305.3"/>
		<path id="Fill-73" class="st2" d="M846.9,299.5c-0.9,0-1.8,0.1-2.7,0.1C845.1,299.6,846,299.5,846.9,299.5"/>
		<path id="Fill-75" class="st2" d="M598.7,306.5c1.4,0,2.9-0.1,4.3-0.1C601.6,306.5,600.2,306.5,598.7,306.5"/>
		<path id="Fill-77" class="st2" d="M866,295.6c1.5,0.2,2.9,0.4,4.4,0.5C868.9,296,867.5,295.8,866,295.6"/>
		<path id="Fill-79" class="st2" d="M666.3,283.3c-0.9,0-1.8,0.1-2.7,0.1C664.5,283.3,665.4,283.3,666.3,283.3"/>
		<path id="Fill-81" class="st2" d="M597.7,434.5c-0.9-0.1-1.8-0.1-2.7-0.2C595.8,434.4,596.8,434.4,597.7,434.5"/>
		<path id="Fill-83" class="st2" d="M527.8,316.1c1.5-0.2,2.9-0.4,4.4-0.5C530.8,315.7,529.3,315.9,527.8,316.1"/>
		<path id="Fill-85" class="st2" d="M882.2,542.8c-0.9,0-1.9,0-2.8,0C880.2,542.8,881.2,542.8,882.2,542.8"/>
		<path id="Fill-87" class="st2" d="M960.4,424.4c1.5-0.2,3-0.3,4.6-0.5C963.4,424,961.9,424.2,960.4,424.4"/>
		<path id="Fill-89" class="st2" d="M992.8,597.8c1.5,0.2,3,0.3,4.5,0.5C995.8,598.1,994.3,597.9,992.8,597.8"/>
		<path id="Fill-91" class="st2" d="M179.4,194c0.1,1.3,0.2,2.6,0.4,3.9C179.7,196.6,179.6,195.3,179.4,194"/>
		<path id="Fill-93" class="st2" d="M841,626.5c1.5,0.2,3,0.3,4.5,0.5C844,626.8,842.5,626.7,841,626.5"/>
		<path id="Fill-95" class="st2" d="M855.7,628c1.5,0,3,0,4.6,0C858.7,629.1,857.2,629,855.7,628"/>
		<path id="Fill-97" class="st2" d="M884.5,629.2c1.5,0,2.9,0,4.4,0C887.4,629.3,886,629.3,884.5,629.2"/>
		<path id="Fill-99" class="st2" d="M712.2,127.3c0.1-1.3,0.3-2.6,0.4-3.9C712.5,124.7,712.4,126,712.2,127.3"/>
		<path id="Fill-101" class="st2" d="M551.4,98.1c1.5,0.2,3,0.4,4.4,0.5C554.3,98.5,552.9,98.3,551.4,98.1"/>
		<path id="Fill-103" class="st2" d="M546.1,97.4c1.5,0.2,3,0.3,4.5,0.5C549.1,97.7,547.6,97.6,546.1,97.4"/>
		<path id="Fill-105" class="st1" d="M779.7,271.6c-0.9,0-1.8,0-2.8,0C777.9,271.5,778.8,271.5,779.7,271.6"/>
		<path id="Fill-115" class="st2" d="M631,257.1c4.9-1.1,9.8-0.8,14.7,0L631,257.1z"/>
		<path id="Fill-121" class="st2" d="M395,466.1c-0.1,2.8-0.2,5.5-0.3,8.3C394.8,471.6,394.9,468.8,395,466.1"/>
		<path id="Fill-123" class="st2" d="M216.9,92.5c2.2,0.1,4.4,0.1,6.7,0.2C221.3,92.6,219.1,92.6,216.9,92.5"/>
		<path id="Fill-125" class="st2" d="M512.9,515.4c-0.1,2.3-0.2,4.6-0.2,6.9C512.7,520,512.8,517.7,512.9,515.4"/>
		<path id="Fill-127" class="st2" d="M785.1,441.3c-2.2,0-4.5,0-6.7,0C780.6,441.3,782.9,441.3,785.1,441.3"/>
		<path id="Fill-131" class="st2" d="M594.3,322.4c1.3,0,2.7,0,4,0C597.1,322.4,595.7,322.4,594.3,322.4"/>
		<path id="Fill-133" class="st2" d="M598.8,248.8c1.1,0,2.2-0.1,3.3-0.1C601,248.8,599.9,248.8,598.8,248.8"/>
		<path id="Fill-135" class="st2" d="M757.8,440.6c-1.8-0.2-3.5-0.3-5.3-0.5C754.3,440.2,756,440.4,757.8,440.6"/>
		<path id="Fill-137" class="st2" d="M796,441.4c-1.7,0-3.4-0.1-5.2-0.1C792.6,441.3,794.3,441.3,796,441.4"/>
		<path id="Fill-139" class="st2" d="M777.7,441.3c-1.8-0.2-3.6-0.3-5.3-0.5C774.1,441,775.9,441.2,777.7,441.3"/>
		<path id="Fill-141" class="st2" d="M771.2,444.1c0.9,0,1.8,0,2.6,0C772.9,444.1,772.1,444.1,771.2,444.1"/>
		<path id="Fill-143" class="st2" d="M395.8,404.4c-0.1-1.3-0.3-2.6-0.4-3.9C395.5,401.8,395.6,403.1,395.8,404.4"/>
		<path id="Fill-145" class="st2" d="M661.5,272.5c0.3,0.1,0.4,0.2,0.4,0.5c-1.2-0.1-2.5-0.1-3.7-0.2
			C659.3,272.7,660.4,272.6,661.5,272.5"/>
		<path id="Fill-147" class="st2" d="M374.7,491.9c0.1-1.2,0.1-2.4,0.2-3.6C374.9,489.5,374.8,490.7,374.7,491.9"/>
		<path id="Fill-149" class="st2" d="M641.5,268c0.9,0,1.8,0,2.7,0.1C643.3,268,642.4,268,641.5,268"/>
		<path id="Fill-151" class="st2" d="M313.4,417.9c-1.5,0.2-3,0.4-4.5,0.5C310.4,418.3,311.9,418.1,313.4,417.9"/>
		<path id="Fill-153" class="st2" d="M623.7,319.5c0.9,0,1.8,0,2.7,0C625.5,319.5,624.6,319.5,623.7,319.5"/>
		<path id="Fill-155" class="st2" d="M676.9,139.7c0.2,0.9,0.3,1.7,0.5,2.6C676.4,142.4,675.9,140.2,676.9,139.7"/>
		<path id="Fill-157" class="st2" d="M179.4,408.7c0.9,0,1.8,0,2.6-0.1C181.1,408.7,180.3,408.7,179.4,408.7"/>
		<path id="Fill-159" class="st2" d="M719,127.9c0.1-2,0.2-4,0.3-6C719.2,123.9,719.1,125.9,719,127.9"/>
		<path id="Fill-161" class="st2" d="M551.1,692.1c-1.4,0.2-2.7,0.4-4.1,0.6C548.4,692.5,549.8,692.3,551.1,692.1"/>
		<path id="Fill-163" class="st1" d="M560.1,178.5c1-4.6,6.5-4.5,10.4-4.5c3.9,0,8.3,1.8,10.7,5.1c0.9,1.2,2,3.5-0.2,4.4
			c-1.4,0.6-5.3-1.6-6.4-2C569.9,180,565,179.5,560.1,178.5"/>
		<path id="Fill-165" class="st1" d="M573.5,187.3c-0.7,4-3.9,8.7-8.6,7.9c-4.3-0.7-6.9-10-1.2-10.7
			C564.2,192.8,568.2,191,573.5,187.3"/>
	</g>
</g>
</svg>
