<svg xmlns="http://www.w3.org/2000/svg" width="200" height="40" fill="none" class="UserLogo variant-- " viewBox="0 0 200 40" preserveAspectRatio="xMidYMid meet"><path fill="var(--userLogoColor, #25D366)" d="M49.99 5c-8.193 0-14.862 6.668-14.866 14.864 0 2.62.684 5.178 1.985 7.432L35 35l7.88-2.067a14.852 14.852 0 007.104 1.809h.006c8.193 0 14.862-6.67 14.866-14.865a14.772 14.772 0 00-4.35-10.517A14.768 14.768 0 0049.99 5zm0 27.231h-.005c-2.216 0-4.392-.597-6.288-1.722l-.451-.267-4.676 1.226 1.248-4.559-.294-.467a12.331 12.331 0 01-1.89-6.576c.003-6.813 5.546-12.355 12.362-12.355 3.3.001 6.402 1.288 8.734 3.624a12.28 12.28 0 013.616 8.74c-.002 6.813-5.545 12.356-12.356 12.356zm6.777-9.253c-.37-.186-2.197-1.085-2.538-1.209-.34-.124-.588-.186-.836.186-.247.372-.959 1.209-1.175 1.457-.217.248-.434.279-.805.093-.371-.186-1.569-.58-2.987-1.844-1.104-.985-1.85-2.202-2.066-2.573-.216-.372-.023-.573.163-.758.167-.166.371-.434.557-.651.186-.217.248-.372.371-.62.124-.248.062-.465-.03-.651-.094-.186-.837-2.015-1.146-2.758-.302-.724-.608-.627-.836-.638a14.214 14.214 0 00-.712-.013c-.247 0-.65.093-.99.465-.341.372-1.3 1.27-1.3 3.098 0 1.829 1.33 3.595 1.516 3.843.186.248 2.619 4 6.345 5.608.886.383 1.578.611 2.118.782.89.283 1.7.243 2.339.147.713-.107 2.198-.898 2.507-1.767.31-.867.31-1.61.216-1.766-.093-.155-.34-.248-.711-.434v.003zm26.299-.227h-.04l-2.465-9.943h-2.97l-2.505 9.822h-.04l-2.283-9.821h-3.171l3.818 14.429h3.212l2.404-9.822h.04l2.445 9.822h3.152l3.879-14.43H85.43l-2.365 9.943zm15.152-5.062c-.283-.37-.67-.66-1.161-.87-.492-.207-1.122-.311-1.89-.311-.538 0-1.09.137-1.656.414-.566.276-1.03.717-1.394 1.324h-.061v-5.437h-2.868v14.428h2.868V21.76c0-1.065.175-1.829.526-2.294.35-.465.916-.697 1.697-.697.686 0 1.164.212 1.434.637.27.424.405 1.067.405 1.929v5.9h2.869V20.81c0-.647-.058-1.236-.172-1.769-.115-.53-.314-.982-.597-1.353zm11.818 7.224v-5.435c0-.635-.14-1.143-.424-1.526a2.906 2.906 0 00-1.09-.9 4.887 4.887 0 00-1.476-.434 11.715 11.715 0 00-1.595-.111c-.579 0-1.155.056-1.727.172a4.933 4.933 0 00-1.546.576 3.45 3.45 0 00-1.13 1.07c-.297.445-.466 1.004-.506 1.678h2.869c.054-.565.243-.97.566-1.213.323-.242.768-.363 1.333-.363.256 0 .495.017.717.05.222.035.417.1.586.202.168.101.303.243.404.425.101.182.151.428.151.737.013.297-.075.521-.262.677-.19.155-.445.274-.769.354a7.362 7.362 0 01-1.111.181c-.418.042-.842.097-1.272.163-.432.067-.859.158-1.283.272a3.631 3.631 0 00-1.132.515c-.33.23-.6.536-.809.92-.208.384-.313.874-.313 1.465 0 .539.091 1.004.273 1.394.182.392.435.714.758.97.323.257.7.446 1.131.567.43.121.896.182 1.394.182a6.51 6.51 0 001.899-.283 3.752 3.752 0 001.617-.991 4.128 4.128 0 00.201 1.01h2.91c-.135-.215-.23-.538-.284-.97a10.878 10.878 0 01-.081-1.354h.001zm-2.868-1.718c0 .163-.016.379-.05.648-.033.27-.125.535-.273.798-.149.263-.378.49-.688.677-.309.19-.747.283-1.313.283-.229 0-.451-.02-.667-.061a1.622 1.622 0 01-.566-.212 1.091 1.091 0 01-.384-.415 1.352 1.352 0 01-.141-.646c0-.269.047-.492.141-.667a1.29 1.29 0 01.375-.434 1.87 1.87 0 01.545-.273c.208-.067.42-.121.637-.162.228-.04.458-.075.686-.1.23-.027.448-.061.657-.102.209-.04.404-.09.587-.151.181-.061.332-.144.454-.253v1.07zm8.223-9.537h-2.869v3.131h-1.737v1.92h1.737v6.164c0 .526.088.95.263 1.273.176.323.415.574.717.748a2.95 2.95 0 001.051.353c.397.06.819.091 1.263.091.284 0 .573-.007.87-.019a6.85 6.85 0 00.808-.081v-2.223a3.75 3.75 0 01-.425.06 4.605 4.605 0 01-.464.021c-.484 0-.808-.081-.97-.243-.161-.162-.241-.485-.241-.97v-5.174h2.101v-1.92h-2.101v-3.132h-.003zm11.858 9.003a2.603 2.603 0 00-.747-.83 4.08 4.08 0 00-1.061-.535 12.586 12.586 0 00-1.222-.343 46.117 46.117 0 00-1.192-.263 9.536 9.536 0 01-1.041-.272 2.184 2.184 0 01-.736-.395.783.783 0 01-.282-.626c0-.216.052-.388.161-.515a1.09 1.09 0 01.394-.294c.156-.067.326-.11.515-.131.188-.02.364-.03.525-.03.511 0 .956.098 1.334.293.377.196.586.57.625 1.121h2.728c-.054-.646-.219-1.182-.495-1.607a3.269 3.269 0 00-1.04-1.02 4.33 4.33 0 00-1.425-.546 8.268 8.268 0 00-1.645-.161c-.565 0-1.119.05-1.656.15a4.557 4.557 0 00-1.455.527 2.91 2.91 0 00-1.041 1.02c-.263.43-.394.983-.394 1.657 0 .458.094.846.284 1.163.187.317.437.578.745.788.312.208.665.378 1.062.505.397.13.805.24 1.222.334 1.025.216 1.823.431 2.395.648.573.215.858.538.858.97 0 .256-.06.466-.181.635a1.37 1.37 0 01-.455.404 2.128 2.128 0 01-.606.222 3.045 3.045 0 01-.637.071c-.283 0-.555-.034-.818-.1a2.138 2.138 0 01-.698-.314 1.689 1.689 0 01-.495-.546 1.582 1.582 0 01-.192-.798h-2.727c.028.7.185 1.283.476 1.748a3.45 3.45 0 001.11 1.122c.451.282.967.485 1.547.606a8.842 8.842 0 003.524.01 4.417 4.417 0 001.525-.596 3.302 3.302 0 001.081-1.121c.276-.466.414-1.041.414-1.729 0-.485-.094-.892-.282-1.221l-.002-.001zm5.697-9.853l-5.455 14.43h3.192l1.131-3.214h5.394l1.09 3.214h3.294l-5.394-14.43h-3.252zm-.303 8.853l1.879-5.295h.04l1.819 5.295h-3.738zm18.869-3.456a4.366 4.366 0 00-1.475-1.232c-.592-.31-1.299-.465-2.12-.465-.647 0-1.239.127-1.778.383-.54.256-.983.667-1.333 1.233h-.041v-1.335h-2.728v14.107h2.871v-4.951h.039c.35.512.799.899 1.345 1.16a4.065 4.065 0 001.788.395c.768 0 1.438-.15 2.01-.445a4.256 4.256 0 001.434-1.193 5.19 5.19 0 00.86-1.717c.186-.647.282-1.32.282-2.021 0-.741-.096-1.451-.282-2.133a5.25 5.25 0 00-.87-1.788l-.002.002zm-1.838 5.072c-.082.405-.22.758-.414 1.06-.196.304-.451.55-.769.739-.316.188-.71.284-1.181.284-.471 0-.848-.095-1.171-.284a2.261 2.261 0 01-.778-.738 3.155 3.155 0 01-.424-1.061 5.773 5.773 0 01-.131-1.232c0-.416.039-.85.12-1.253a3.16 3.16 0 01.416-1.072c.193-.31.45-.561.768-.757.316-.195.709-.294 1.181-.294.471 0 .846.099 1.161.294.317.195.577.45.778.768.202.317.346.677.435 1.08a5.8 5.8 0 01.13 1.235c0 .418-.04.828-.121 1.23zm14.141-3.284a5.213 5.213 0 00-.869-1.788 4.372 4.372 0 00-1.474-1.232c-.593-.31-1.301-.465-2.122-.465-.646 0-1.239.127-1.777.383-.539.256-.984.667-1.334 1.233h-.039v-1.335h-2.728v14.107h2.869v-4.951h.041c.35.512.798.899 1.343 1.16a4.07 4.07 0 001.788.395c.768 0 1.437-.15 2.01-.445a4.246 4.246 0 001.434-1.193c.385-.499.67-1.07.859-1.717.189-.647.283-1.32.283-2.021 0-.741-.094-1.451-.283-2.133l-.001.002zm-2.708 3.284a2.99 2.99 0 01-.414 1.06c-.196.304-.451.55-.768.739-.316.188-.71.284-1.182.284-.471 0-.848-.095-1.172-.284a2.261 2.261 0 01-.778-.738 3.176 3.176 0 01-.424-1.061 5.774 5.774 0 01-.132-1.232c0-.416.041-.85.122-1.253a3.16 3.16 0 01.415-1.072c.194-.31.451-.561.768-.757.315-.195.71-.294 1.181-.294.472 0 .845.099 1.161.294.318.195.577.45.779.768.202.317.348.677.434 1.08.089.405.132.817.132 1.235 0 .418-.041.828-.122 1.23z"></path><title>WhatsApp logo</title></svg>