<?xml version="1.0" encoding="utf-8"?>
<!-- Generator: Adobe Illustrator 25.3.1, SVG Export Plug-In . SVG Version: 6.00 Build 0)  -->
<svg version="1.1" id="Camada_1" xmlns="http://www.w3.org/2000/svg" xmlns:xlink="http://www.w3.org/1999/xlink" x="0px" y="0px"
	 viewBox="0 0 800 800" style="enable-background:new 0 0 800 800;" xml:space="preserve">
<style type="text/css">
	.st0{fill:#FFFFFF;}
</style>
<path class="st0" d="M586.7,210.7c-24.4-24.6-53.5-44.1-85.6-57.4c-32-13.3-66.4-20-101.1-19.9c-46.4,0-91.9,12.3-132.1,35.5
	s-73.5,56.5-96.7,96.7c-23.2,40.1-35.5,85.7-35.6,132c-0.1,46.4,12,92,35.1,132.2l-37.3,137l140-36.7c38.7,21.5,82.1,33,126.3,33.3
	c70.3,0,137.8-27.8,187.7-77.3c49.9-49.5,78.3-116.7,78.9-187.1c-0.2-35.1-7.4-69.8-21.1-102.1C631.6,264.6,611.7,235.3,586.7,210.7
	z M400,617.7c-39.4,0-78.1-10.6-112-30.7l-8-5l-83,22l22-81l-5.3-8.3c-28.4-45.8-38.9-100.4-29.7-153.4
	c9.2-53.1,37.5-100.9,79.6-134.5c42.1-33.6,95.1-50.5,148.8-47.7c53.8,2.9,104.6,25.4,142.9,63.2c41.9,40.9,65.8,96.8,66.7,155.3
	c-0.5,58.5-24.2,114.5-65.7,155.7C514.7,594.6,458.5,617.7,400,617.7z M520.3,453c-6.7-3.3-39-19.3-45-21.3s-10.7-3.3-15,3.3
	c-6.5,8.9-13.5,17.5-21,25.7c-3.7,4.7-7.7,5-14.3,0c-38-15-69.7-42.7-89.7-78.3c-7-11.7,6.7-11,19.3-36c0.9-1.8,1.4-3.8,1.4-5.8
	c0-2-0.5-4-1.4-5.8c0-3.3-15-36-20.3-49c-5.3-13-10.7-11-15-11.3h-13c-3.4,0.1-6.7,0.8-9.7,2.3c-3,1.4-5.8,3.5-7.9,6.1
	c-7.5,7.3-13.3,16.1-17.1,25.8c-3.8,9.7-5.5,20.1-4.9,30.6c2.1,24.9,11.5,48.7,27,68.3c28.4,42.5,67.3,77,113,100
	c23.9,14,51.8,19.8,79.3,16.7c9.2-1.8,17.9-5.5,25.5-11c7.6-5.4,14.1-12.3,18.8-20.4c4.4-9.8,5.8-20.7,4-31.3
	C531.3,458,527,456.3,520.3,453z"/>
</svg>
